<svg width="208" height="208" viewBox="0 0 208 208" fill="none" xmlns="http://www.w3.org/2000/svg">
<path d="M17 14H99L126 41V172H17V14Z" fill="white" style="fill:white;fill:white;fill-opacity:1;"/>
<path d="M126 41L99 14V41H126Z" fill="#E1E1E1" style="fill:#E1E1E1;fill:color(display-p3 0.8833 0.8833 0.8833);fill-opacity:1;"/>
<rect x="30" y="28" width="26" height="3" rx="1.5" fill="#86909A" style="fill:#86909A;fill:color(display-p3 0.5236 0.5655 0.6042);fill-opacity:1;"/>
<rect x="30" y="35" width="15" height="3" rx="1.5" fill="#86909A" style="fill:#86909A;fill:color(display-p3 0.5236 0.5655 0.6042);fill-opacity:1;"/>
<rect x="30" y="66" width="79" height="5" rx="2.5" fill="#86909A" style="fill:#86909A;fill:color(display-p3 0.5236 0.5655 0.6042);fill-opacity:1;"/>
<rect x="30" y="77" width="59" height="5" rx="2.5" fill="#86909A" style="fill:#86909A;fill:color(display-p3 0.5236 0.5655 0.6042);fill-opacity:1;"/>
<rect x="30" y="88" width="79" height="5" rx="2.5" fill="#86909A" style="fill:#86909A;fill:color(display-p3 0.5236 0.5655 0.6042);fill-opacity:1;"/>
<rect x="30" y="99" width="22" height="5" rx="2.5" fill="#86909A" style="fill:#86909A;fill:color(display-p3 0.5236 0.5655 0.6042);fill-opacity:1;"/>
<rect x="45" y="125" width="38" height="4" rx="2" fill="#86909A" style="fill:#86909A;fill:color(display-p3 0.5236 0.5655 0.6042);fill-opacity:1;"/>
<circle cx="35" cy="127" r="4" stroke="#84C98F" style="stroke:#84C98F;stroke:color(display-p3 0.5184 0.7875 0.5615);stroke-opacity:1;" stroke-width="2"/>
<rect x="45" y="140" width="38" height="4" rx="2" fill="#86909A" style="fill:#86909A;fill:color(display-p3 0.5236 0.5655 0.6042);fill-opacity:1;"/>
<circle cx="35" cy="142" r="4" stroke="#84C98F" style="stroke:#84C98F;stroke:color(display-p3 0.5184 0.7875 0.5615);stroke-opacity:1;" stroke-width="2"/>
<path d="M109.646 68.3173H193.501V192.671C193.501 192.671 121.293 192.671 109.646 192.671C98 192.671 98 183.353 98 183.353L109.646 68.3173Z" fill="#84C98F" style="fill:#84C98F;fill:color(display-p3 0.5184 0.7875 0.5615);fill-opacity:1;"/>
<path d="M106.152 65.988L183.019 60.1648C183.019 60.1648 182.437 70.6466 190.007 71.8112V190.341C190.007 190.341 122.457 190.341 111.393 190.341C100.329 190.341 103.241 183.936 103.241 183.936L106.152 65.988Z" fill="white" style="fill:white;fill:white;fill-opacity:1;"/>
<path d="M98 70.2C98 66.2796 98 64.3194 98.763 62.8221C99.4341 61.5049 100.505 60.4341 101.822 59.763C103.319 59 105.28 59 109.2 59H184.184V183.353H98V70.2Z" fill="#84C98F" style="fill:#84C98F;fill:color(display-p3 0.5184 0.7875 0.5615);fill-opacity:1;"/>
<rect x="115.847" y="100.895" width="49.8813" height="11.4281" rx="3" fill="#98CFA1" stroke="#B0DCEF" style="fill:#98CFA1;fill:color(display-p3 0.5958 0.8125 0.6305);fill-opacity:1;stroke:#B0DCEF;stroke:color(display-p3 0.6914 0.8637 0.9375);stroke-opacity:1;" stroke-width="2"/>
<rect x="134.879" y="168.145" width="11.8177" height="3.88294" rx="1.94147" fill="#98CFA1" stroke="#B0DCEF" style="fill:#98CFA1;fill:color(display-p3 0.5958 0.8125 0.6305);fill-opacity:1;stroke:#B0DCEF;stroke:color(display-p3 0.6914 0.8637 0.9375);stroke-opacity:1;"/>
<path d="M110.146 122.04C111.384 121.646 112.693 122.402 112.971 123.671L113.697 126.992C113.881 127.834 114.539 128.492 115.381 128.676L118.702 129.402C119.971 129.68 120.727 130.989 120.333 132.227L119.301 135.466C119.04 136.287 119.28 137.186 119.918 137.766L122.43 140.056C123.391 140.931 123.391 142.442 122.43 143.317L119.918 145.607C119.28 146.187 119.04 147.086 119.301 147.907L120.333 151.146C120.727 152.384 119.971 153.693 118.702 153.971L115.381 154.697C114.539 154.881 113.881 155.539 113.697 156.381L112.971 159.702C112.693 160.971 111.384 161.727 110.146 161.333L106.907 160.301C106.086 160.04 105.187 160.28 104.607 160.918L102.317 163.43C101.442 164.391 99.9308 164.391 99.0557 163.43L96.7664 160.918C96.1858 160.28 95.2874 160.04 94.466 160.301L91.2271 161.333C89.9889 161.727 88.6799 160.971 88.4023 159.702L87.676 156.381C87.4919 155.539 86.8342 154.881 85.9921 154.697L82.6714 153.971C81.402 153.693 80.6462 152.384 81.0405 151.146L82.0719 147.907C82.3334 147.086 82.0927 146.187 81.4555 145.607L78.9428 143.317C77.9823 142.442 77.9823 140.931 78.9428 140.056L81.4555 137.766C82.0927 137.186 82.3334 136.287 82.0719 135.466L81.0405 132.227C80.6462 130.989 81.402 129.68 82.6714 129.402L85.9921 128.676C86.8342 128.492 87.4919 127.834 87.676 126.992L88.4023 123.671C88.6799 122.402 89.9889 121.646 91.2271 122.04L94.466 123.072C95.2874 123.333 96.1858 123.093 96.7664 122.456L99.0557 119.943C99.9308 118.982 101.442 118.982 102.317 119.943L104.607 122.456C105.187 123.093 106.086 123.333 106.907 123.072L110.146 122.04Z" fill="#EDD21C" style="fill:#EDD21C;fill:color(display-p3 0.9292 0.8237 0.1084);fill-opacity:1;"/>
<rect x="92.3953" y="133" width="24.6411" height="4.79075" rx="2.39538" transform="rotate(30 92.3953 133)" fill="white" style="fill:white;fill:white;fill-opacity:1;"/>
<rect x="93.1841" y="145" width="9.47581" height="2.36831" rx="1.18416" transform="rotate(30 93.1841 145)" fill="white" style="fill:white;fill:white;fill-opacity:1;"/>
</svg>
