<svg width="208" height="208" viewBox="0 0 208 208" fill="none" xmlns="http://www.w3.org/2000/svg">
<path d="M19.013 91.7007H93.8633V186.303C93.8633 186.303 27.8078 186.303 19.013 186.303C10.2183 186.303 11.019 180.269 11.019 180.269L19.013 91.7007Z" fill="#A46F8C" style="fill:#A46F8C;fill:color(display-p3 0.6417 0.4358 0.5488);fill-opacity:1;"/>
<path d="M15.8945 89.6215L86.9094 89.2278C86.9094 89.2278 87.8866 92.5921 90.7448 94.8194V184.224C90.7448 184.224 30.4487 184.224 20.5727 184.224C10.6966 184.224 15.0228 179.068 15.0228 179.068L15.8945 89.6215Z" fill="white" style="fill:white;fill:white;fill-opacity:1;"/>
<path d="M11.0188 96.9861C11.0188 93.0658 11.0188 91.1056 11.7818 89.6082C12.4529 88.2911 13.5237 87.2202 14.8409 86.5491C16.3382 85.7861 18.2984 85.7861 22.2188 85.7861H87.9483V180.389H11.0188V96.9861Z" fill="#A46F8C" style="fill:#A46F8C;fill:color(display-p3 0.6417 0.4358 0.5488);fill-opacity:1;"/>
<rect x="37.1416" y="111.909" width="25.4232" height="4.60491" rx="2.30246" fill="#C496AF" stroke="#C1A161" style="fill:#C496AF;fill:color(display-p3 0.7667 0.5878 0.6857);fill-opacity:1;stroke:#C1A161;stroke:color(display-p3 0.7583 0.6305 0.3823);stroke-opacity:1;"/>
<path d="M118.067 47.3933H196V167.504C196 167.504 128.891 167.504 118.067 167.504C107.243 167.504 107.243 158.845 107.243 158.845L118.067 47.3933Z" fill="#A5C9FE" style="fill:#A5C9FE;fill:color(display-p3 0.6473 0.7867 0.9958);fill-opacity:1;"/>
<path d="M114.82 45.2286L186.258 39.8165C186.258 39.8165 185.717 49.5582 192.753 50.6406V165.339C192.753 165.339 129.973 165.339 119.69 165.339C109.408 165.339 112.113 159.386 112.113 159.386L114.82 45.2286Z" fill="white" style="fill:white;fill:white;fill-opacity:1;"/>
<path d="M107.243 49.9341C107.243 46.0138 107.243 44.0536 108.006 42.5562C108.677 41.2391 109.748 40.1682 111.065 39.4971C112.562 38.7341 114.522 38.7341 118.443 38.7341H187.341V158.845H107.243V49.9341Z" fill="#A5C9FE" style="fill:#A5C9FE;fill:color(display-p3 0.6473 0.7867 0.9958);fill-opacity:1;"/>
<rect x="120.575" y="65.9683" width="53.1203" height="21.7305" rx="3.5" fill="#CADFFF" stroke="#61A5C1" style="fill:#CADFFF;fill:color(display-p3 0.7917 0.8750 1.0000);fill-opacity:1;stroke:#61A5C1;stroke:color(display-p3 0.3823 0.6455 0.7583);stroke-opacity:1;"/>
<path d="M68 148.403V125.653L94 141.525V152.636H78.6122C77.0204 152.636 68 153.165 68 148.403Z" fill="black" fill-opacity="0.3" style="fill:black;fill:black;fill-opacity:0.3;"/>
<rect x="107" y="40.6531" width="51" height="108" fill="black" fill-opacity="0.2" style="fill:black;fill:black;fill-opacity:0.2;"/>
<path d="M70.7678 21.3173H154.622V145.671C154.622 145.671 82.4142 145.671 70.7678 145.671C59.1213 145.671 59.1213 136.353 59.1213 136.353L70.7678 21.3173Z" fill="#84C98F" style="fill:#84C98F;fill:color(display-p3 0.5184 0.7875 0.5615);fill-opacity:1;"/>
<path d="M67.2738 18.988L144.14 13.1648C144.14 13.1648 143.558 23.6466 151.128 24.8112V143.341C151.128 143.341 83.5788 143.341 72.5147 143.341C61.4506 143.341 64.362 136.936 64.362 136.936L67.2738 18.988Z" fill="white" style="fill:white;fill:white;fill-opacity:1;"/>
<path d="M59.1213 23.2C59.1213 19.2796 59.1213 17.3194 59.8843 15.8221C60.5554 14.5049 61.6263 13.4341 62.9434 12.763C64.4408 12 66.401 12 70.3213 12H145.305V136.353H59.1213V23.2Z" fill="#84C98F" style="fill:#84C98F;fill:color(display-p3 0.5184 0.7875 0.5615);fill-opacity:1;"/>
<rect x="76.9685" y="53.8945" width="49.8813" height="11.4281" rx="3" fill="#98CFA1" stroke="#B0DCEF" style="fill:#98CFA1;fill:color(display-p3 0.5958 0.8125 0.6305);fill-opacity:1;stroke:#B0DCEF;stroke:color(display-p3 0.6914 0.8637 0.9375);stroke-opacity:1;" stroke-width="2"/>
<rect x="96.0002" y="121.145" width="11.8177" height="3.88294" rx="1.94147" fill="#98CFA1" stroke="#B0DCEF" style="fill:#98CFA1;fill:color(display-p3 0.5958 0.8125 0.6305);fill-opacity:1;stroke:#B0DCEF;stroke:color(display-p3 0.6914 0.8637 0.9375);stroke-opacity:1;"/>
<path d="M145.316 92.2104C146.554 91.8161 147.863 92.5719 148.141 93.8413L148.867 97.162C149.051 98.0041 149.709 98.6618 150.551 98.846L153.872 99.5722C155.141 99.8498 155.897 101.159 155.503 102.397L154.471 105.636C154.21 106.457 154.45 107.356 155.087 107.936L157.6 110.226C158.561 111.101 158.561 112.612 157.6 113.487L155.087 115.777C154.45 116.357 154.21 117.256 154.471 118.077L155.503 121.316C155.897 122.554 155.141 123.863 153.872 124.141L150.551 124.867C149.709 125.051 149.051 125.709 148.867 126.551L148.141 129.872C147.863 131.141 146.554 131.897 145.316 131.503L142.077 130.471C141.256 130.21 140.357 130.45 139.777 131.087L137.487 133.6C136.612 134.561 135.101 134.561 134.226 133.6L131.936 131.087C131.356 130.45 130.457 130.21 129.636 130.471L126.397 131.503C125.159 131.897 123.85 131.141 123.572 129.872L122.846 126.551C122.662 125.709 122.004 125.051 121.162 124.867L117.841 124.141C116.572 123.863 115.816 122.554 116.21 121.316L117.242 118.077C117.503 117.256 117.263 116.357 116.625 115.777L114.113 113.487C113.152 112.612 113.152 111.101 114.113 110.226L116.625 107.936C117.263 107.356 117.503 106.457 117.242 105.636L116.21 102.397C115.816 101.159 116.572 99.8498 117.841 99.5722L121.162 98.846C122.004 98.6618 122.662 98.0041 122.846 97.162L123.572 93.8413C123.85 92.5719 125.159 91.8161 126.397 92.2104L129.636 93.2418C130.457 93.5033 131.356 93.2626 131.936 92.6254L134.226 90.1127C135.101 89.1522 136.612 89.1522 137.487 90.1127L139.777 92.6254C140.357 93.2626 141.256 93.5033 142.077 93.2418L145.316 92.2104Z" fill="#EDD21C" style="fill:#EDD21C;fill:color(display-p3 0.9292 0.8237 0.1084);fill-opacity:1;"/>
<rect x="124.719" y="101.218" width="29.7651" height="4.79075" rx="2.39538" transform="rotate(30 124.719 101.218)" fill="white" style="fill:white;fill:white;fill-opacity:1;"/>
<rect x="127.229" y="113.944" width="13.4235" height="2.36831" rx="1.18416" transform="rotate(30 127.229 113.944)" fill="white" style="fill:white;fill:white;fill-opacity:1;"/>
<path d="M145.146 92.0405C146.384 91.6462 147.693 92.402 147.971 93.6714L148.697 96.9921C148.881 97.8342 149.539 98.4919 150.381 98.676L153.702 99.4023C154.971 99.6799 155.727 100.989 155.333 102.227L154.301 105.466C154.04 106.287 154.28 107.186 154.918 107.766L157.43 110.056C158.391 110.931 158.391 112.442 157.43 113.317L154.918 115.607C154.28 116.187 154.04 117.086 154.301 117.907L155.333 121.146C155.727 122.384 154.971 123.693 153.702 123.971L150.381 124.697C149.539 124.881 148.881 125.539 148.697 126.381L147.971 129.702C147.693 130.971 146.384 131.727 145.146 131.333L141.907 130.301C141.086 130.04 140.187 130.28 139.607 130.918L137.317 133.43C136.442 134.391 134.931 134.391 134.056 133.43L131.766 130.918C131.186 130.28 130.287 130.04 129.466 130.301L126.227 131.333C124.989 131.727 123.68 130.971 123.402 129.702L122.676 126.381C122.492 125.539 121.834 124.881 120.992 124.697L117.671 123.971C116.402 123.693 115.646 122.384 116.04 121.146L117.072 117.907C117.333 117.086 117.093 116.187 116.456 115.607L113.943 113.317C112.982 112.442 112.982 110.931 113.943 110.056L116.456 107.766C117.093 107.186 117.333 106.287 117.072 105.466L116.04 102.227C115.646 100.989 116.402 99.6799 117.671 99.4023L120.992 98.676C121.834 98.4919 122.492 97.8342 122.676 96.9921L123.402 93.6714C123.68 92.402 124.989 91.6462 126.227 92.0405L129.466 93.0719C130.287 93.3334 131.186 93.0927 131.766 92.4555L134.056 89.9428C134.931 88.9823 136.442 88.9823 137.317 89.9428L139.607 92.4555C140.187 93.0927 141.086 93.3334 141.907 93.0719L145.146 92.0405Z" fill="#EDD21C" style="fill:#EDD21C;fill:color(display-p3 0.9292 0.8237 0.1084);fill-opacity:1;"/>
<rect x="127.395" y="103" width="24.6411" height="4.79075" rx="2.39538" transform="rotate(30 127.395 103)" fill="white" style="fill:white;fill:white;fill-opacity:1;"/>
<rect x="128.184" y="115" width="9.47581" height="2.36831" rx="1.18416" transform="rotate(30 128.184 115)" fill="white" style="fill:white;fill:white;fill-opacity:1;"/>
</svg>
