<svg width="32" height="32" viewBox="0 0 32 32" fill="none" xmlns="http://www.w3.org/2000/svg">
<g id="favicon 32">
<rect width="32" height="32" fill="#F1E8D7" style="fill:#F1E8D7;fill:color(display-p3 0.9451 0.9098 0.8431);fill-opacity:1;"/>
<path id="Star 1" d="M14.9836 2.44896C15.529 1.85035 16.471 1.85035 17.0164 2.44896L18.4431 4.01491C18.8049 4.41201 19.3649 4.56204 19.8767 4.39904L21.8953 3.75625C22.6669 3.51054 23.4827 3.98154 23.6558 4.77265L24.1084 6.84217C24.2231 7.36697 24.633 7.77687 25.1578 7.89164L27.2273 8.34425C28.0185 8.51727 28.4895 9.33308 28.2437 10.1047L27.601 12.1233C27.438 12.6351 27.588 13.1951 27.9851 13.5569L29.551 14.9836C30.1497 15.529 30.1497 16.471 29.551 17.0164L27.9851 18.4431C27.588 18.8049 27.438 19.3649 27.601 19.8767L28.2437 21.8953C28.4895 22.6669 28.0185 23.4827 27.2273 23.6558L25.1578 24.1084C24.633 24.2231 24.2231 24.633 24.1084 25.1578L23.6558 27.2273C23.4827 28.0185 22.6669 28.4895 21.8953 28.2437L19.8767 27.601C19.3649 27.438 18.8049 27.588 18.4431 27.9851L17.0164 29.551C16.471 30.1497 15.529 30.1497 14.9836 29.551L13.5569 27.9851C13.1951 27.588 12.6351 27.438 12.1233 27.601L10.1047 28.2437C9.33308 28.4895 8.51727 28.0185 8.34425 27.2273L7.89164 25.1578C7.77687 24.633 7.36697 24.2231 6.84217 24.1084L4.77265 23.6558C3.98154 23.4827 3.51054 22.6669 3.75625 21.8953L4.39904 19.8767C4.56204 19.3649 4.41201 18.8049 4.01491 18.4431L2.44896 17.0164C1.85035 16.471 1.85035 15.529 2.44896 14.9836L4.01491 13.5569C4.41201 13.1951 4.56204 12.6351 4.39904 12.1233L3.75625 10.1047C3.51054 9.33308 3.98154 8.51727 4.77265 8.34425L6.84217 7.89164C7.36697 7.77687 7.77687 7.36697 7.89164 6.84217L8.34425 4.77265C8.51727 3.98154 9.33308 3.51054 10.1047 3.75625L12.1233 4.39904C12.6351 4.56204 13.1951 4.41201 13.5569 4.01491L14.9836 2.44896Z" fill="#D2BE31" style="fill:#D2BE31;fill:color(display-p3 0.8250 0.7438 0.1925);fill-opacity:1;"/>
</g>
</svg>
