<svg width="152" height="201" viewBox="0 0 152 201" fill="none" xmlns="http://www.w3.org/2000/svg">
<g id="Frame 26">
<g id="Union">
<path fill-rule="evenodd" clip-rule="evenodd" d="M98.9 77.5448C101.433 78.4212 103.302 79.2099 104.594 81.4886L104.647 81.5587C105.24 82.6104 106.219 86.4841 106.149 88.605C106.156 88.605 106.07 88.9479 105.97 89.3496C105.828 89.9176 105.657 90.6033 105.677 90.6033C101.468 97.2289 89.7474 98.6838 75.8612 98.7714C49.5212 98.9467 46.447 91.4797 46.447 91.4797C46.467 91.1386 46.4856 90.6799 46.5064 90.1655C46.5583 88.8821 46.6243 87.2523 46.7614 86.2388C46.7702 86.1511 46.7833 86.0635 46.7964 85.9758C46.8095 85.8882 46.8226 85.8005 46.8313 85.7129C46.8367 85.6719 46.8421 85.6307 46.8475 85.5894C46.9297 84.9604 47.0157 84.3025 47.1632 83.6446C47.2156 83.3817 47.2855 83.1187 47.3553 82.8733C47.6872 81.734 48.1763 80.8926 48.8575 80.2792C49.5911 79.6131 50.5867 79.2976 51.5474 78.9996C51.8792 78.8944 52.2111 78.7893 52.5255 78.6666C53.0321 78.4738 53.5211 78.2459 53.6958 77.8252C54.3945 76.1425 55.0757 74.4423 55.7219 72.7771C56.3161 71.2533 56.8323 69.6983 57.2852 68.3337C57.3117 68.2542 57.3379 68.1753 57.3638 68.0971L57.3988 67.9744V67.9393L57.4337 67.8341C57.7481 66.7123 58.0974 65.573 58.4468 64.4512C58.5624 64.085 58.6735 63.7128 58.7854 63.338C59.2145 61.9009 59.655 60.4258 60.4031 59.1051L60.4931 58.8491C61.0936 57.1415 61.7123 55.3824 62.3943 53.4961C62.4117 53.4523 62.4292 53.4041 62.4467 53.3559C62.4641 53.3077 62.4816 53.2594 62.4991 53.2156C63.3724 50.6214 66.3767 41.8223 67.547 39.3508C68.2358 37.8879 68.7337 36.2334 69.1753 34.7657C69.2152 34.6331 69.2546 34.5021 69.2937 34.3728C69.2937 34.35 69.2919 34.3273 69.29 34.3039C69.286 34.2553 69.2819 34.2041 69.2937 34.1449C69.7478 31.9714 69.7304 30.2887 68.6649 28.2905C68.6244 28.2151 68.5833 28.1389 68.5418 28.062C67.8503 26.78 67.049 25.2945 66.9007 23.8559C66.7785 22.664 67.9487 21.2091 69.1714 20.5956C69.9749 20.0172 71.0054 19.5615 72.1932 19.246C72.1932 19.1583 72.2107 19.0707 72.2631 18.9655C72.3033 18.905 72.3319 18.8444 72.359 18.7873C72.3789 18.7451 72.398 18.7047 72.4203 18.6675C72.4377 18.65 72.4377 18.615 72.4377 18.615C72.4446 18.6011 72.4542 18.59 72.4633 18.5795C72.4773 18.5633 72.4901 18.5485 72.4901 18.5273C72.7521 18.0716 72.9617 17.5808 73.1189 17.0549C73.0017 16.9961 72.7477 16.9427 72.5345 16.898C72.3666 16.8627 72.224 16.8327 72.1932 16.8095C72.1676 16.8031 72.1443 16.7943 72.1216 16.7858C72.0825 16.771 72.0453 16.757 72.0011 16.757C71.774 16.7044 71.5993 16.4765 71.6867 16.2311C71.8852 15.6443 71.8469 14.9736 71.8093 14.3162C71.7874 13.9327 71.7657 13.5539 71.7915 13.1987C71.8439 12.445 72.0185 11.6913 72.1932 10.9551C71.4771 10.7448 70.0972 10.0086 69.9749 9.71062C69.7478 9.11466 74.5512 2.54159 76.3852 0.525846C76.4202 0.403149 76.4726 0.315508 76.5774 0.227867C76.6647 0.087641 76.7171 0 76.7171 0C76.7695 0 76.8394 0.0350564 76.9092 0.087641C77.0664 0.0525846 77.2236 0.105169 77.3284 0.245395C77.8338 0.964468 78.3558 1.6796 78.8794 2.39686C80.5637 4.70435 82.2642 7.03393 83.4768 9.58793C83.6515 9.93849 83.372 10.2365 83.0226 10.3066C82.5161 10.5695 82.027 10.8149 81.5205 11.0603C81.503 12.3048 81.503 13.5318 81.6777 14.7587C81.7126 14.934 81.6078 15.0918 81.4856 15.2145V15.3196C81.538 15.3898 81.5554 15.4599 81.5554 15.565C81.5462 15.6736 81.5413 15.7806 81.5365 15.885C81.5142 16.3705 81.4945 16.8015 81.0489 17.09C80.7869 17.2653 80.4026 17.388 80.0183 17.4581C80.0707 17.8963 80.1581 18.3345 80.2454 18.7552C82.324 19.1759 84.5073 20.2801 84.8043 21.5947C84.9964 22.4887 84.8217 23.5228 84.6645 24.4518L84.5597 25.0303C84.3501 26.3975 84.0881 27.7296 83.7737 28.9566C83.7083 29.238 83.4627 29.414 83.2218 29.5867C83.0126 29.7366 82.8069 29.8841 82.7257 30.0959C82.6811 30.2123 82.7869 30.4111 82.8918 30.6081C82.9922 30.7967 83.0918 30.9836 83.0576 31.095C82.7432 31.8487 82.6908 32.4096 82.6908 32.7427C82.6908 32.7777 82.6908 32.8479 82.7432 33.0407C82.7606 33.2335 82.7781 33.4263 82.8305 33.6016H82.7956C82.9418 34.756 83.235 35.752 83.5353 36.7726C83.7731 37.5806 84.0154 38.4039 84.1929 39.3333C84.3157 39.9629 84.4053 40.4572 84.483 40.8859C84.7039 42.1042 84.8289 42.7934 85.3457 44.5567C85.3611 44.6132 85.4244 44.7284 85.5072 44.8789C85.7069 45.2421 86.0197 45.8108 86.0444 46.2569C86.1579 46.5549 86.3108 47.0063 86.4636 47.4576C86.6165 47.909 86.7693 48.3603 86.8828 48.6583L87.3195 50.5689C87.8834 52.1137 88.6366 53.9416 89.3952 55.7827C90.9864 59.6444 92.6012 63.5635 92.5421 65.0472C92.7692 65.6431 92.9962 66.2215 93.1884 66.6072L93.1911 66.6143C93.7142 67.9791 94.2373 69.3439 94.7604 70.6912C94.8051 70.806 94.8501 70.922 94.8957 71.0392C95.4551 72.4792 96.0811 74.0903 96.8564 75.5816C97.1708 76.1951 97.4677 76.6684 97.9044 77.0189C97.9274 77.0343 97.947 77.0497 97.9647 77.0636C97.9874 77.0813 98.0071 77.0967 98.0267 77.1066C98.2712 77.2818 98.5507 77.4221 98.9 77.5448ZM81.2061 26.5377C81.1886 26.6078 81.2236 26.7305 81.2236 26.7305L81.241 26.713C81.1362 27.1687 80.9965 28.4483 81.1886 28.4483C81.1362 28.6761 81.0838 28.9215 81.0489 29.1669C81.0489 29.2195 81.1362 29.2195 81.1362 29.1669C81.1712 28.9215 81.2236 28.6761 81.276 28.4307C81.3982 28.4132 82.0096 26.3449 82.1668 25.4159C82.1842 25.3458 82.2017 25.2581 82.2192 25.153C82.2366 25.1179 82.2366 25.0829 82.2366 25.0478L82.2451 25.0076C82.3667 24.4333 82.5284 23.6697 82.3065 23.2073C82.7082 22.9795 83.4069 21.6473 83.0576 21.9453C83.0125 21.9905 82.8512 22.05 82.6655 22.1185C82.3472 22.2359 81.9572 22.3798 81.9572 22.5237C81.9572 22.5939 81.9746 22.6464 82.0096 22.6815C81.8698 22.7691 81.3633 23.3125 81.5205 23.4352C81.5205 23.5228 81.538 23.5754 81.5904 23.628C81.6078 23.6806 81.6078 23.7157 81.6078 23.7682C81.5602 24.3419 81.4981 24.9011 81.4347 25.4721C81.4284 25.5292 81.422 25.5864 81.4157 25.6438C81.3458 25.9593 81.276 26.2572 81.2061 26.5377ZM78.5784 24.6884C79.263 24.6235 79.9468 24.5587 80.455 24.0487H80.4375C80.8393 23.6455 80.2105 23.1022 79.8087 23.4703C79.4746 23.7824 78.867 23.82 78.3066 23.8548C78.0173 23.8727 77.7406 23.8898 77.5206 23.9435C77.2685 23.9977 77.0163 24.0985 76.7618 24.2003C76.5226 24.2959 76.2813 24.3924 76.0359 24.4518C76.001 24.4518 77.3634 24.8725 77.8175 24.7849C78.0651 24.7371 78.3218 24.7128 78.5784 24.6884ZM80.2978 16.4239C80.3502 16.3889 80.5249 15.0567 80.5249 15.0567V15.0392C80.5166 14.9315 80.3913 14.8551 80.2688 14.7805C80.1321 14.6972 79.999 14.616 80.0358 14.4958C80.0818 14.3573 80.2248 14.3599 80.3729 14.3626C80.5057 14.365 80.6427 14.3675 80.717 14.268C80.6364 13.6211 80.4939 13.3369 80.2657 12.8817C80.197 12.7447 80.1206 12.5923 80.0358 12.41L80.1755 11.5511C80.1755 11.5423 79.7563 11.5598 79.3371 11.5774C78.9179 11.5949 78.4987 11.6124 78.4987 11.6037C78.4289 11.6212 78.359 11.6387 78.2891 11.6387C78.2542 13.0059 78.3765 14.6536 78.6385 16.0032C78.6803 15.9822 79.2367 16.1375 79.6947 16.2653C80.0007 16.3508 80.2628 16.4239 80.2978 16.4239ZM77.2796 1.99401C77.2102 1.90866 77.1445 1.82791 77.0839 1.75282L77.049 1.78788C76.9907 1.71961 77.0351 1.83041 77.092 1.97234C77.1374 2.08549 77.1907 2.21844 77.2062 2.29619L77.2935 2.66429V2.94474C77.3023 2.98856 77.311 3.03676 77.3197 3.08496C77.3284 3.13317 77.3372 3.18137 77.3459 3.22519C77.4333 3.43553 77.5206 3.64587 77.6254 3.8562C77.6691 3.94385 77.7127 4.0271 77.7564 4.11036C77.8001 4.19362 77.8437 4.27688 77.8874 4.36452C77.8175 4.45216 77.8001 4.57486 77.8525 4.73261C78.0446 5.27599 78.3241 6.46791 78.3066 6.46791C78.265 6.49574 78.2895 6.60093 78.3013 6.65186C78.3044 6.66507 78.3066 6.67463 78.3066 6.67824C78.3066 6.68701 78.3153 6.69577 78.3241 6.70454C78.3328 6.7133 78.3415 6.72206 78.3415 6.73083C78.359 6.836 78.3765 6.94117 78.3765 7.04634C78.4289 7.20409 78.4813 7.36185 78.5511 7.50207C78.6909 7.80005 78.8306 8.09803 78.9878 8.37848C79.014 8.4223 79.0402 8.4705 79.0664 8.5187C79.0926 8.56691 79.1188 8.61511 79.145 8.65893C79.2149 8.86927 79.2847 9.07523 79.3546 9.28118C79.4245 9.48714 79.4943 9.6931 79.5642 9.90343C79.6166 10.0261 79.8437 10.1488 79.9135 10.0612C79.931 10.0612 79.931 10.0962 79.931 10.0962V10.0086C79.9659 9.62298 79.8961 9.23736 79.7563 8.86927C79.7738 8.86927 79.8087 8.90433 79.8087 8.90433C79.931 9.00949 80.1231 8.99197 80.0882 8.85174C80.3153 8.81669 80.4201 8.22073 80.4026 8.09803C80.4725 8.01039 80.5074 7.37937 80.5074 7.34432C80.4998 7.32126 80.4887 7.30158 80.4788 7.28378C80.466 7.26099 80.455 7.2413 80.455 7.22162C80.4201 7.08139 80.3677 6.92364 80.2803 6.78341C80.179 6.57996 80.0536 6.4006 79.9241 6.21538C79.8974 6.17719 79.8705 6.13876 79.8437 6.09981C79.6341 5.5915 79.3721 5.08318 79.0577 4.59239C78.791 3.8526 77.8905 2.74531 77.2796 1.99401ZM77.024 13.1512C77.0039 13.6243 76.9838 14.0957 76.7346 14.4958L76.7171 14.5134C76.63 14.9989 76.6609 15.2961 76.6938 15.6137C76.7204 15.8694 76.7483 16.1382 76.7171 16.5291C76.7936 16.5547 76.8259 16.6737 76.8641 16.8146C76.9306 17.0595 77.0149 17.3704 77.3809 17.3704C77.6684 17.3611 77.6604 17.2233 77.6524 17.0856C77.6454 16.964 77.6384 16.8424 77.835 16.8095C77.318 15.2369 77.3539 13.6492 77.3899 12.0605C77.3928 11.9316 77.3957 11.8027 77.3983 11.6738C77.0685 12.1058 77.0462 12.6295 77.024 13.1512ZM76.5424 20.8761C77.7477 21.1215 78.5511 20.8936 79.8437 20.0523C79.8437 20.0523 76.3328 20.4028 74.953 20.0172C74.8656 20.2977 75.5468 20.6657 76.5424 20.8761ZM68.2107 23.2775C68.8396 24.522 69.2588 25.784 69.4684 27.1512L69.5557 27.0811C69.5771 27.2097 69.9642 27.594 70.2778 27.9052C70.477 28.1029 70.6464 28.2711 70.6736 28.3256C70.7085 28.3782 70.7784 28.3431 70.7609 28.2905C70.726 28.2292 70.6954 28.1634 70.6648 28.0977C70.6343 28.032 70.6037 27.9662 70.5688 27.9049C70.7609 27.8698 70.7958 26.9759 70.7609 26.8883C70.6628 26.6258 70.4232 26.6512 70.196 26.6753C69.9377 26.7027 69.6954 26.7284 69.6954 26.3274C69.6954 26.2923 69.5906 25.7577 69.4858 25.2231C69.381 24.6885 69.2762 24.1539 69.2762 24.1188C69.3285 24.1113 69.553 24.2223 69.7957 24.3422C70.121 24.503 70.4789 24.6799 70.4989 24.6096C70.691 24.6447 70.8832 24.6797 71.0753 24.6797C71.512 24.6797 71.5993 24.0136 71.1102 24.0136C70.7784 24.0136 70.4465 23.9435 70.1146 23.8559C70.0273 23.8208 69.9574 23.7858 69.8876 23.7507V23.6631L69.7828 23.7157C69.643 23.6455 69.5033 23.5754 69.381 23.4878C69.3461 23.4703 69.154 23.3476 69.0841 23.2775L68.9793 23.0671C69.119 23.0145 69.3461 22.664 69.381 22.5763C69.4684 22.3134 69.3112 22.1556 69.119 22.1556V21.9628C69.119 21.8577 68.9269 21.8577 68.9269 21.9628V22.2082C68.8396 22.2433 68.3854 22.6464 68.4203 22.8217C68.2457 22.9094 68.1234 23.0846 68.2107 23.2775ZM71.0578 35.7225L71.6343 33.8119V33.7944L71.0578 33.3211C71.0578 33.3211 70.691 34.1099 70.6037 34.2852C70.5624 34.3681 70.3882 35.008 70.2068 35.6742C70.0048 36.4163 69.7939 37.1911 69.7478 37.265C69.6605 37.4227 69.6954 38.7899 69.6954 38.6322C69.6954 38.4744 71.0578 35.7225 71.0578 35.7225ZM69.1714 41.1913C69.0666 41.7872 68.9444 42.3832 68.7173 42.9441C68.63 43.277 68.5601 43.61 68.4903 43.9429L68.5252 43.9783C68.6649 44.2938 68.7697 44.5917 68.8221 44.9423C68.8396 45.065 68.8046 45.1877 68.7347 45.2929C68.9067 45.3422 69.0773 45.3901 69.2458 45.4374C69.6761 45.5583 70.0923 45.6752 70.4814 45.8012L70.7958 45.9064C70.8832 45.9239 70.988 45.9414 71.0928 45.9589C71.4339 46.0167 71.776 46.0771 72.1189 46.1377C74.7955 46.6106 77.5223 47.0924 80.2629 46.3621C80.3624 46.3314 81.1123 46.1896 81.9427 46.0327C83.0077 45.8314 84.2051 45.605 84.3327 45.5558C84.1751 45.0759 83.9669 44.5106 83.747 43.9137C83.2842 42.6573 82.7698 41.261 82.5685 40.2272C82.46 40.2371 82.2177 39.1174 81.9928 38.0778C81.8195 37.2769 81.6565 36.5236 81.5729 36.371C81.402 36.0281 81.4317 35.5595 81.4617 35.086C81.493 34.5914 81.5247 34.0915 81.3284 33.7243L81.4681 33.0932C81.2242 33.0881 80.8578 33.1824 80.3699 33.3078C79.1805 33.6137 77.2696 34.1051 74.656 33.7944C74.1742 33.7407 73.7909 33.5486 73.3974 33.3516C73.1489 33.2271 72.8964 33.1006 72.6124 33.0056C72.5584 32.9853 72.5957 33.2375 72.6427 33.5546C72.7173 34.0575 72.8159 34.7234 72.6124 34.7234C72.0273 36.1962 71.735 36.7425 71.3806 37.4047C71.1108 37.9088 70.8051 38.4801 70.3068 39.5787C70.4399 39.5609 70.1626 39.869 69.8507 40.2155C69.5489 40.5508 69.2147 40.922 69.1889 41.0686C69.1714 41.1212 69.1714 41.1913 69.1714 41.1913ZM66.1714 63.0261C66.1485 63.1227 66.1258 63.2187 66.0973 63.3119C66.3124 63.0672 65.55 65.0089 65.2704 65.7211C65.2095 65.8762 65.1715 65.973 65.1715 65.9761C65.1466 66.2009 64.6433 66.8968 64.3304 67.3294C64.204 67.5042 64.1087 67.636 64.0886 67.6764C64.105 67.734 63.9867 68.1699 63.8602 68.6363C63.7171 69.1637 63.5635 69.73 63.582 69.8324C63.582 69.8849 63.4074 70.3407 63.4074 70.3407C63.7069 70.3979 66.7429 71.168 68.0752 71.5059C68.3746 71.5819 68.588 71.636 68.6649 71.6553C70.7085 72.1461 72.9617 72.1461 74.918 72.111C75.2498 72.0935 75.5641 72.0935 75.8959 72.0935C76.2103 72.076 76.5424 72.076 76.8568 72.076C77.9398 72.0584 78.9878 71.9007 80.0009 71.7429C80.1845 71.7166 80.3637 71.6903 80.5429 71.664C80.7217 71.6377 80.9006 71.6114 81.0838 71.5852C81.3414 71.5584 81.4771 71.6768 81.6125 71.7949C81.7434 71.9091 81.874 72.0231 82.1144 72.0059C82.5474 71.9617 83.0669 71.9763 83.5962 71.9912C84.3265 72.0117 85.0756 72.0328 85.6427 71.9007C85.8086 71.8656 86.337 71.686 86.8654 71.5063C87.3937 71.3266 87.9221 71.147 88.088 71.1119C88.4492 71.0376 89.3258 70.5938 90.1687 70.167C90.9157 69.7888 91.6363 69.4239 91.9482 69.3416C92.0177 68.3229 91.2237 66.2043 90.9059 65.3563C90.8245 65.1391 90.7744 65.0053 90.7779 64.9946C90.7729 64.9794 90.7257 64.9482 90.6669 64.9093C90.522 64.8135 90.307 64.6713 90.481 64.6089C90.3696 64.058 90.3742 63.8162 90.3775 63.64C90.3815 63.4295 90.3838 63.3126 90.1841 62.8737C90.1666 62.8386 89.2234 60.2795 89.2234 60.2269C89.1884 60.0867 89.1186 59.9903 89.0487 59.8939C88.9788 59.7975 88.909 59.7011 88.874 59.5608C88.8484 59.4667 88.4937 59.6902 88.1273 59.9212C87.7434 60.1631 87.3467 60.4132 87.302 60.3145C86.8723 60.4889 86.3611 60.5383 85.8413 60.5886C85.3681 60.6344 84.8877 60.6809 84.4549 60.8229C84.3811 60.848 84.3097 60.8723 84.2408 60.8957C82.3372 61.544 82.2379 61.5778 79.8611 61.6116C79.5549 61.6197 79.1109 61.7286 78.6564 61.84C78.126 61.9701 77.5811 62.1038 77.2236 62.0849C76.4376 62.0323 75.6342 61.9972 74.8307 62.0323H74.3591C72.8744 62.0498 71.3024 61.857 70.0797 61.4714C69.3884 61.2806 68.6458 61.2443 67.9365 61.2096L67.8657 61.2061C67.5309 61.1893 67.1817 61.1718 66.8483 61.1384C66.835 61.2725 66.7194 61.5195 66.6501 61.6673C66.6289 61.7127 66.612 61.7488 66.6038 61.7694C66.4815 62.0498 66.3767 62.3303 66.2894 62.6107C66.2377 62.7455 66.2044 62.8863 66.1714 63.0261ZM64.0536 67.0717C64.3156 66.8613 64.5776 66.651 64.63 66.0638H64.665C64.7348 65.3451 64.403 64.4862 64.1934 64.5038C63.8091 65.7483 63.4423 66.9753 63.4423 66.9753C63.3026 67.4147 63.1926 67.4202 63.0887 67.4255C62.9977 67.4301 62.9113 67.4345 62.8135 67.729C62.796 67.7991 62.7786 67.8692 62.7436 67.9393C62.6738 68.1146 62.5166 68.2022 62.3419 68.2198C62.2371 68.5528 62.1148 68.5528 62.1847 68.2198C62.0799 68.2198 61.9925 68.1847 61.9052 68.1496C61.7497 68.37 61.6085 68.5999 61.4692 68.8269C61.3425 69.0333 61.2174 69.2372 61.0843 69.4292C61.0319 69.4993 60.962 69.5519 60.8921 69.587C60.9707 69.6165 61.0548 69.6406 61.1413 69.6653C61.2087 69.6845 61.2775 69.7042 61.3463 69.7272C61.4201 69.7491 61.4943 69.7711 61.5688 69.7931C61.9701 69.9117 62.378 70.0323 62.7611 70.1654C62.9523 70.2293 62.8093 70.1293 62.6385 70.0098C62.4348 69.8672 62.1917 69.697 62.4292 69.7447C62.5907 69.7788 62.6323 69.7216 62.6726 69.666C62.7152 69.6074 62.7565 69.5505 62.9358 69.6045C62.9676 69.4979 63.1417 69.015 63.285 68.6176C63.3772 68.3617 63.4567 68.1413 63.4772 68.0795C63.5296 67.4923 63.7916 67.282 64.0536 67.0717ZM61.4336 60.6125C61.5733 60.6826 61.6607 60.8053 61.6083 61.0332V61.0157C61.5471 61.3224 61.1498 62.0323 60.7524 62.7422C60.355 63.4521 59.9577 64.162 59.8965 64.4687C59.7743 65.0296 61.0144 64.1532 60.6127 64.311C60.8887 63.448 61.597 62.3325 62.1534 61.4565C62.5123 60.8912 62.808 60.4256 62.8834 60.1918C62.8493 60.132 62.5573 60.1931 62.2612 60.2552C61.9504 60.3203 61.6351 60.3863 61.6083 60.3145H61.5209C61.5015 60.3634 61.4874 60.4177 61.4728 60.4744C61.4611 60.5194 61.4491 60.566 61.4336 60.6125ZM59.8005 67.2557C59.7568 67.374 59.7131 67.4923 59.6695 67.6063C59.6869 68.0094 59.652 68.4126 59.5821 68.8157C59.7743 68.5353 59.9664 68.2548 60.176 67.9919L60.3332 67.3083C60.4138 66.931 61.3798 65.573 62.3284 64.2395C63.2307 62.9712 64.1172 61.7251 64.2108 61.3662C64.2465 61.2321 63.9096 61.3989 63.5801 61.562C63.2636 61.7188 62.9539 61.8721 62.9882 61.7519C63.0406 61.4188 60.1935 66.204 59.9315 66.9051C59.8878 67.0191 59.8441 67.1374 59.8005 67.2557ZM68.8221 84.5911C65.0842 84.188 57.4861 82.6981 55.0931 81.3659L55.0757 81.3834C54.9659 81.3018 54.8674 81.2278 54.7832 81.1645C54.5057 80.9558 54.3827 80.8633 54.5167 80.9978C54.639 81.1205 54.8486 81.2607 55.0757 81.3834C56.0014 82.067 57.8529 83.3466 59.4948 83.7848C60.3247 84.0029 61.6296 84.1874 63.0554 84.3889C64.1504 84.5438 65.3168 84.7086 66.3942 84.9066C67.1971 85.0437 67.9498 85.2479 68.5871 85.4208L68.63 85.4324C69.1593 85.5716 69.8795 85.5921 70.3643 85.6059C70.5514 85.6112 70.7034 85.6155 70.7958 85.6253C70.464 85.5551 69.9924 85.45 69.5557 85.2747C69.3962 85.208 69.4289 85.1134 69.4633 85.014C69.5192 84.8522 69.5795 84.678 68.8221 84.5911ZM59.9096 86.7758C57.1134 86.4621 54.0987 86.1239 51.6871 84.6963C51.2155 84.4158 50.8836 84.6963 51.3902 84.9767C52.0896 85.3604 52.6483 85.7091 53.1478 86.0209C54.5195 86.8769 55.4445 87.4541 57.6084 87.7111C58.1498 87.7812 60.6127 86.8522 59.9664 86.7821L59.9096 86.7758ZM51.3028 79.1574C50.4295 79.4553 49.5387 79.8585 48.8575 80.6648C48.8226 80.6998 48.7876 80.7524 48.7527 80.8049C49.399 80.0162 50.2898 79.5605 51.3028 79.1574ZM51.5648 91.3745C51.5648 91.6374 51.4076 92.5314 48.578 90.13C48.578 90.13 51.5648 91.0941 51.5648 91.3745ZM47.9841 90.9889C47.9841 90.9889 50.9884 92.8819 55.1805 94.7399C51.4426 94.7049 47.9841 90.9889 47.9841 90.9889ZM55.5473 93.6532L62.7786 95.3709C61.4511 96.8959 55.5473 93.6532 55.5473 93.6532ZM70.8832 90.6383C71.8264 90.9363 74.0272 91.3745 75.4246 91.2343C76.8219 91.0941 86.0619 89.9898 86.0619 89.9898C83.7213 90.2702 72.1408 90.2001 68.9793 89.7619C67.9983 89.6252 66.9952 89.4953 66.0613 89.3743C64.0019 89.1077 62.2789 88.8845 61.8703 88.7277C61.2764 88.5174 60.2459 88.7979 61.9401 89.3938C62.1549 89.4702 62.4073 89.562 62.6862 89.6636C64.5846 90.3548 67.714 91.4941 68.6125 91.2343C68.9802 91.128 69.2522 90.9837 69.4938 90.8557C69.9292 90.6248 70.2653 90.4467 70.8832 90.6383ZM79.5118 85.2572C80.4201 85.5902 81.5904 85.4675 82.5161 85.3097C83.4593 85.1345 85.206 84.8365 86.6033 84.8365C87.9832 84.854 93.8172 83.9776 93.7473 83.7322C93.6774 83.4868 94.0792 82.961 94.411 82.9435C94.7429 82.9259 96.8739 82.5403 97.0835 82.2774C97.1243 82.2262 97.1816 82.1683 97.2379 82.1116C97.4706 81.877 97.6843 81.6616 96.6293 82.0145C95.7136 82.3085 93.748 82.7739 92.5762 83.0513C92.0717 83.1708 91.7144 83.2554 91.6513 83.2765C91.5602 83.3046 91.5928 83.4005 91.6284 83.5051C91.6816 83.6614 91.7414 83.8374 91.4067 83.8374C91.1624 83.8295 90.3312 83.9001 89.2582 83.9912C87.9534 84.1021 86.291 84.2433 84.8916 84.3106C83.8615 84.3605 82.9239 84.4684 82.087 84.5647C80.8661 84.7052 79.8595 84.8211 79.0926 84.6963C77.8001 84.4859 77.2586 85.0644 77.2586 85.0644C77.2586 85.0644 78.6035 84.9241 79.5118 85.2572ZM101.136 87.5008L101.083 87.2729C101.241 87.2554 101.293 87.4832 101.136 87.5008ZM101.842 85.6808C102.154 85.2113 102.497 84.6953 103.319 84.1003C103.808 83.7497 103.494 82.9259 102.952 83.3115C98.5856 86.4841 96.6817 87.7812 91.3019 88.3421C90.743 88.3947 87.302 90.0073 87.9483 89.9197C90.481 89.6042 93.1709 89.0958 95.494 88.2545C95.5289 88.3597 95.5813 88.4298 95.7036 88.4648C95.6512 88.7453 95.7735 89.0257 96.1228 88.9381C96.4277 88.8588 96.7399 88.7941 97.0499 88.7299C97.2195 88.6948 97.3884 88.6598 97.5551 88.6226C97.8695 88.5525 98.0791 88.0442 97.8695 87.8163C97.8695 87.7167 98.6245 87.5663 99.248 87.442C99.7224 87.3475 100.121 87.2681 100.053 87.2379C101.133 86.7485 101.465 86.2487 101.842 85.6808Z" fill="#122F4A" style="fill:#122F4A;fill:color(display-p3 0.0693 0.1849 0.2917);fill-opacity:1;"/>
<path fill-rule="evenodd" clip-rule="evenodd" d="M83.0159 150.346C82.5572 148.845 82.585 147.579 84.1833 146.189L84.1694 146.175C85.7261 144.826 87.6024 144.465 89.6177 144.979C90.4933 145.215 91.2021 145.744 91.633 146.648C92.2167 147.843 92.4808 149.053 92.2306 150.318C92.1246 150.868 91.8849 151.404 91.6367 151.96C91.527 152.205 91.4156 152.454 91.3133 152.71C93.1758 153.336 93.9402 154.879 94.232 156.687C94.5934 158.87 94.3432 160.942 93.0924 162.874C91.9805 164.585 90.2014 165.071 88.3251 165.266C87.3522 165.363 86.3098 165.141 85.323 164.918C83.1687 164.446 82.1819 162.902 81.5843 161.067L81.5756 161.038C81.5354 160.905 81.4889 160.751 81.5148 160.622C81.5392 160.524 81.5583 160.418 81.5777 160.31C81.6357 159.989 81.6957 159.655 81.904 159.509C82.3765 159.176 82.9603 159.454 83.3216 159.829C83.6135 160.121 83.8081 160.525 83.9749 160.9C84.7532 162.749 87.1021 163.375 88.7699 162.151C90.8408 160.65 91.4801 157.424 89.993 155.463C89.6182 154.963 89.0078 154.587 88.4339 154.233C88.3693 154.193 88.3051 154.154 88.2417 154.114C87.9856 153.964 87.6902 153.876 87.327 153.767C87.1186 153.705 86.8879 153.636 86.6295 153.544C87.1299 153.252 87.4356 153.072 87.7275 152.891C89.4092 151.834 90.118 150.179 89.6872 148.316C89.4092 147.093 88.617 146.592 87.2966 146.801C85.8929 147.023 85.0868 147.927 85.2674 149.081C85.29 149.202 85.3372 149.318 85.3845 149.435C85.4244 149.534 85.4644 149.633 85.4898 149.734C85.6566 150.402 85.4064 151.097 84.8922 151.181C83.9749 151.333 83.2938 151.222 83.0159 150.346ZM88.4762 163.807C88.1989 163.974 87.9213 164.14 87.5468 164.362C88.0286 164.427 88.339 164.242 88.478 163.806L88.4762 163.807ZM92.3418 158.494C92.3001 158.453 92.2028 158.369 92.2028 158.369C92.1056 158.446 92.0118 158.522 91.9181 158.599C91.8242 158.675 91.7303 158.752 91.633 158.828C91.6677 158.863 91.699 158.898 91.7303 158.932C91.7616 158.967 91.7928 159.002 91.8276 159.037C91.9109 158.946 91.9978 158.856 92.0846 158.766C92.1715 158.675 92.2584 158.585 92.3418 158.494ZM90.3689 146.982C90.2658 147.094 90.1678 147.212 90.0683 147.332C90.0117 147.4 89.9545 147.469 89.8957 147.538L90.0903 147.704C90.1806 147.621 90.2709 147.534 90.3612 147.447C90.4516 147.36 90.5419 147.273 90.6323 147.19C90.5353 147.121 90.452 147.051 90.3689 146.982Z" fill="#122F4A" style="fill:#122F4A;fill:color(display-p3 0.0693 0.1849 0.2917);fill-opacity:1;"/>
<path fill-rule="evenodd" clip-rule="evenodd" d="M133.537 162.179C133.565 163.027 133.926 163.25 134.885 163.319L134.941 163.292C135.103 163.3 135.271 163.314 135.463 163.33C135.583 163.34 135.714 163.35 135.858 163.361C135.865 163.474 135.872 163.585 135.879 163.695C135.914 164.239 135.946 164.757 135.97 165.266C134.705 165.78 130.924 165.808 128.798 165.336C128.367 163.431 128.381 163.417 130.507 162.735C130.518 162.592 130.531 162.445 130.544 162.297C130.58 161.87 130.619 161.427 130.619 160.983C130.609 160.27 130.575 159.556 130.541 158.842C130.524 158.485 130.507 158.128 130.494 157.771C130.466 157.229 130.174 156.909 129.576 156.909C129.353 156.905 129.13 156.899 128.908 156.893C128.357 156.877 127.81 156.862 127.255 156.881C125.796 156.923 124.338 156.993 122.879 157.062L122.877 157.062C122.688 157.07 122.499 157.088 122.298 157.107C122.16 157.121 122.016 157.134 121.862 157.146C121.645 157.769 121.685 158.393 121.724 159.007C121.742 159.298 121.76 159.586 121.751 159.871C121.744 160.269 121.772 160.67 121.799 161.072C121.824 161.428 121.849 161.784 121.849 162.137C121.835 163.528 121.932 163.653 123.364 163.75C123.572 163.764 123.767 163.778 124.017 163.806C124.037 163.872 124.067 163.936 124.096 164C124.147 164.111 124.197 164.22 124.197 164.334C124.281 165.53 124.142 165.614 122.849 165.628C121.849 165.644 120.848 165.676 119.847 165.708C119.18 165.729 118.513 165.75 117.846 165.767C117.686 165.776 117.525 165.76 117.37 165.744C117.295 165.737 117.222 165.729 117.151 165.725C116.442 163.778 116.567 163.597 118.638 163.5C118.697 163.5 118.749 163.486 118.853 163.458C118.896 163.447 118.948 163.433 119.013 163.417C118.97 162.396 118.93 161.39 118.889 160.379C118.853 159.463 118.817 158.543 118.777 157.605C118.437 157.542 118.093 157.479 117.73 157.413C117.367 157.347 116.984 157.278 116.567 157.201C116.544 156.945 116.524 156.689 116.503 156.426C116.473 156.047 116.441 155.654 116.4 155.227C116.911 155.185 117.386 155.148 117.875 155.11C118.198 155.085 118.526 155.06 118.874 155.032V147.899C118.803 147.896 118.727 147.893 118.648 147.89C118.369 147.878 118.045 147.865 117.721 147.843C116.901 147.774 116.762 147.635 116.734 146.842C116.706 145.966 116.956 145.549 117.693 145.549C118.983 145.563 120.26 145.644 121.55 145.727L121.598 145.73C121.91 145.755 122.221 145.801 122.566 145.851C122.791 145.884 123.031 145.919 123.294 145.952C123.237 146.325 123.186 146.698 123.133 147.089C123.109 147.266 123.084 147.448 123.058 147.635C122.446 147.677 121.932 147.718 121.265 147.774C121.224 148.938 121.291 150.096 121.359 151.241C121.427 152.408 121.495 153.562 121.446 154.698C122.111 155.157 122.793 155.099 123.464 155.041C124.013 154.994 124.554 154.947 125.073 155.185C124.795 155.213 124.521 155.241 124.246 155.269C123.972 155.296 123.697 155.324 123.419 155.352C123.52 155.373 123.621 155.394 123.722 155.416C124.572 155.6 125.394 155.778 126.227 155.143C126.524 154.921 127.007 154.908 127.472 154.896C127.617 154.893 127.759 154.889 127.894 154.879C128.382 154.844 128.863 154.826 129.364 154.807C129.662 154.795 129.968 154.784 130.285 154.768C130.285 154.372 130.29 153.978 130.294 153.586C130.304 152.806 130.313 152.032 130.285 151.264C130.257 150.495 130.185 149.726 130.111 148.939C130.075 148.56 130.039 148.177 130.007 147.788C129.785 147.704 129.562 147.621 129.34 147.551C128.576 147.315 128.311 146.967 128.52 146.3C128.589 146.064 128.895 145.744 129.131 145.716C129.767 145.633 130.41 145.62 131.049 145.607C131.263 145.602 131.476 145.598 131.689 145.591C131.937 145.586 132.186 145.59 132.434 145.594C132.879 145.601 133.322 145.608 133.76 145.563C135.136 145.424 135.372 145.619 135.205 146.898C135.186 147.004 135.153 147.103 135.13 147.173C135.12 147.204 135.112 147.228 135.108 147.246C134.913 147.291 134.707 147.322 134.507 147.352C134.039 147.422 133.599 147.488 133.384 147.732C133.209 147.935 133.266 148.309 133.325 148.691C133.354 148.886 133.384 149.083 133.384 149.262C133.384 149.729 133.383 150.198 133.381 150.668C133.378 151.609 133.375 152.552 133.384 153.489C133.398 154.393 133.44 154.406 134.427 154.518C134.681 154.544 134.929 154.587 135.193 154.632C135.348 154.659 135.508 154.687 135.678 154.712V155.672C135.65 156.186 135.358 156.409 134.816 156.437C134.508 156.456 134.207 156.502 133.913 156.547C133.782 156.566 133.652 156.586 133.523 156.603C133.523 157.2 133.518 157.788 133.513 158.37C133.501 159.662 133.489 160.924 133.537 162.179ZM120.695 159.996L120.959 160.26C121.279 160.219 121.585 160.163 121.32 159.635C121.085 159.773 120.891 159.884 120.696 159.995L120.695 159.996ZM132.815 151.723H132.87L132.898 151.069H132.815V151.723ZM135.255 164.309C135.052 164.426 134.874 164.528 134.649 164.654C135.289 164.904 135.455 164.682 135.622 164.098C135.484 164.177 135.366 164.245 135.255 164.309Z" fill="#122F4A" style="fill:#122F4A;fill:color(display-p3 0.0693 0.1849 0.2917);fill-opacity:1;"/>
<path d="M125.155 194.059C125.32 194.203 125.622 194.189 126.254 194.16L126.296 194.146C126.38 194.136 126.472 194.157 126.571 194.18C126.604 194.187 126.637 194.195 126.671 194.202C127.283 194.925 127.227 195.773 127.13 196.607C127.061 197.233 126.338 197.65 125.448 197.664C124.744 197.673 124.033 197.67 123.324 197.667C122.97 197.666 122.617 197.664 122.266 197.664C122.13 197.666 121.994 197.668 121.857 197.67C121.184 197.68 120.504 197.69 119.833 197.747C119.25 197.803 118.902 197.664 118.791 197.08C118.782 197.036 118.773 196.992 118.765 196.948C118.592 196.077 118.422 195.221 118.819 194.202C118.944 194.187 119.069 194.172 119.194 194.157C119.555 194.113 119.913 194.069 120.264 194.049C120.903 194.007 121.223 193.743 121.195 193.103C121.14 192.015 121.102 190.926 121.065 189.837C121.037 189.021 121.009 188.205 120.973 187.388C120.942 186.583 120.875 185.785 120.802 184.935C120.776 184.625 120.749 184.308 120.723 183.982C120.18 183.982 119.631 183.976 119.079 183.97C117.961 183.957 116.826 183.945 115.692 183.982C114.532 184.029 113.373 184.122 112.201 184.216C111.658 184.26 111.113 184.304 110.563 184.343C110.563 184.348 110.556 184.356 110.547 184.367C110.527 184.393 110.493 184.434 110.493 184.482C110.5 185.337 110.514 186.193 110.528 187.048C110.542 187.903 110.556 188.758 110.563 189.613C110.563 189.814 110.549 190.017 110.535 190.223C110.517 190.472 110.5 190.724 110.507 190.976C110.535 191.838 110.563 192.7 110.66 193.548C110.716 194.035 111.022 194.382 111.619 194.382C111.862 194.382 112.106 194.389 112.349 194.396C112.592 194.403 112.835 194.41 113.079 194.41C113.662 194.396 114.01 194.633 114.107 195.175C114.177 195.573 114.239 195.979 114.31 196.438C114.338 196.619 114.367 196.809 114.399 197.01C114.238 197.055 114.081 197.105 113.925 197.154C113.543 197.276 113.172 197.394 112.787 197.414C111.286 197.483 109.778 197.517 108.268 197.551C107.666 197.565 107.065 197.579 106.463 197.594C106.219 197.606 105.967 197.581 105.713 197.557C105.648 197.551 105.583 197.545 105.518 197.539C105.378 196.884 105.25 196.255 105.118 195.604C105.054 195.287 104.988 194.965 104.92 194.633C105.408 194.548 105.871 194.467 106.341 194.384C106.876 194.29 107.42 194.194 108.019 194.09C108.006 193.833 107.992 193.574 107.978 193.314C107.906 191.986 107.832 190.626 107.797 189.266C107.755 187.694 107.755 186.123 107.755 184.455C107.529 184.445 107.322 184.433 107.127 184.422C106.773 184.402 106.462 184.385 106.157 184.385C105.115 184.371 104.934 184.218 104.962 183.259C104.971 183.039 105.022 182.819 105.08 182.572C105.11 182.443 105.142 182.308 105.17 182.16C105.41 182.128 105.649 182.09 105.887 182.052C106.272 181.991 106.655 181.93 107.033 181.896C107.575 181.84 107.839 181.59 107.839 181.09V173.247C107.571 173.212 107.332 173.177 107.105 173.143C106.885 173.111 106.675 173.08 106.463 173.053C105.754 172.969 105.546 172.747 105.587 172.107C105.597 171.874 105.622 171.642 105.651 171.371C105.662 171.27 105.673 171.164 105.685 171.05C107.639 170.736 109.622 170.803 111.594 170.869C112.062 170.885 112.529 170.901 112.995 170.911C113.648 172.663 113.44 172.928 111.188 173.108C111.091 174.749 110.994 176.418 110.924 178.072C110.91 178.545 110.91 179.021 110.91 179.497C110.91 179.974 110.91 180.45 110.896 180.923C110.883 181.437 111.133 181.701 111.675 181.729C111.876 181.744 112.079 181.762 112.282 181.781C112.849 181.833 113.419 181.885 113.982 181.854C115.435 181.779 116.894 181.684 118.382 181.588C119.086 181.542 119.796 181.496 120.514 181.451C120.843 179.553 120.638 177.696 120.435 175.854C120.329 174.89 120.223 173.93 120.195 172.969C118.999 172.867 118.304 172.209 118.11 170.995C120.542 170.87 122.947 170.744 125.49 170.605C125.532 171.301 125.56 171.857 125.587 172.483C124.99 172.594 124.489 172.677 123.808 172.788C123.924 174.112 124.042 175.432 124.161 176.755C124.299 178.295 124.438 179.839 124.573 181.395C125.087 181.465 125.476 181.521 125.837 181.576C126.435 183.161 126.324 183.439 124.809 184.037C124.364 187.069 124.462 190.1 124.892 193.131C124.966 193.655 125.001 193.925 125.155 194.059Z" fill="#122F4A" style="fill:#122F4A;fill:color(display-p3 0.0693 0.1849 0.2917);fill-opacity:1;"/>
<path fill-rule="evenodd" clip-rule="evenodd" d="M70.3959 138.736C69.3674 139.514 68.1999 139.695 66.9769 139.028L66.9352 139.042C65.9206 138.499 65.1422 137.137 65.3368 136.038C65.3924 135.76 65.6843 135.454 65.9623 135.301C66.3792 135.051 66.8518 135.162 67.1714 135.524C67.4394 135.83 67.6811 136.156 67.9509 136.521C68.0728 136.685 68.2005 136.858 68.3389 137.039C68.4492 136.976 68.5699 136.919 68.6903 136.862C68.9642 136.732 69.2365 136.603 69.3813 136.4C69.4458 136.306 69.5112 136.213 69.5766 136.119C70.1036 135.364 70.6383 134.599 70.799 133.647C70.9658 132.646 71.2298 131.631 71.5634 130.657C71.6746 130.333 71.897 130.045 72.1194 129.758C72.2305 129.614 72.3417 129.471 72.439 129.322C72.605 129.086 72.7654 128.845 72.9066 128.633C72.9901 128.507 73.0668 128.392 73.1339 128.293C72.5553 126.999 72.0084 125.752 71.4693 124.522C71.2963 124.128 71.1241 123.735 70.9519 123.343C70.6183 122.551 70.3959 122.412 69.3118 122.342C69.2938 122.501 69.2776 122.655 69.2619 122.805C69.2169 123.234 69.1754 123.63 69.1033 124.011C69.0478 124.344 68.9227 124.692 68.742 124.97C68.3528 125.554 67.783 125.749 67.1853 125.582C66.5321 125.387 66.2958 125.026 66.3375 124.247C66.3931 123.149 66.9213 122.203 67.5328 121.299C68.4084 120.006 70.7712 120.187 71.7719 121.272C73.0367 122.648 74.2319 123.983 74.6767 125.804C74.869 126.602 75.2515 126.869 76.2404 127.56L76.275 127.584C76.3121 127.514 76.3552 127.445 76.3976 127.378C76.4983 127.217 76.5947 127.064 76.5947 126.917C76.5669 125.61 76.4974 124.317 76.414 123.023C76.4001 122.648 76.2194 122.384 75.7747 122.3C74.5796 122.078 74.5794 122.064 74.5655 120.994C74.5655 120.925 74.5708 120.856 74.5781 120.761C74.5827 120.702 74.588 120.633 74.5933 120.548C74.6906 120.542 74.7878 120.534 74.8851 120.526C75.177 120.502 75.4689 120.479 75.7608 120.479C76.156 120.468 76.5522 120.47 76.9487 120.472C78.0161 120.477 79.0848 120.482 80.1388 120.229C80.9033 120.048 81.3202 120.284 81.4592 120.729C81.6121 121.23 81.1395 122.008 80.5697 122.175C80.2907 122.253 80.0116 122.314 79.6822 122.385C79.6014 122.402 79.5176 122.42 79.43 122.44C79.43 123.106 79.4062 123.766 79.3825 124.421C79.3409 125.57 79.2998 126.706 79.3883 127.848L79.6802 127.904C79.7692 127.731 79.8582 127.556 79.9478 127.38C80.1239 127.033 80.302 126.683 80.4863 126.333C80.7504 125.818 81.0145 125.304 81.2924 124.789C81.4366 124.523 81.5753 124.252 81.7141 123.981C82.0169 123.39 82.3202 122.798 82.6823 122.245C83.1826 121.48 83.961 120.966 84.8644 120.646C85.9068 120.284 86.5044 120.437 87.241 121.216C87.274 121.251 87.3071 121.286 87.3403 121.321C88.0476 122.065 88.7695 122.825 88.4641 123.927C88.346 124.36 88.1374 124.773 87.9368 125.169C87.8541 125.332 87.7727 125.493 87.6997 125.651C85.8512 125.943 85.4203 125.415 85.3647 122.731C85.2801 122.798 85.1983 122.857 85.1221 122.911C84.9606 123.026 84.8243 123.123 84.7393 123.246C83.9054 124.456 83.0715 125.679 82.2653 126.917C81.7511 127.723 81.8206 128.419 82.5572 129.183C83.0731 129.726 83.3623 130.495 83.6287 131.203C83.6422 131.239 83.6557 131.275 83.6691 131.311C83.9571 132.058 84.2058 132.81 84.4544 133.561C84.6497 134.152 84.8449 134.742 85.059 135.329C85.2525 135.871 85.506 136.378 85.7638 136.893C85.7836 136.932 85.8035 136.972 85.8234 137.012C86.1708 137.693 86.4627 137.804 87.1437 137.749C87.8943 137.679 88.0332 137.234 88.1028 136.65C88.2278 135.593 88.8533 135.19 89.6872 135.538C90.3543 135.816 90.8686 136.831 90.5628 137.484C90.0208 138.666 89.0757 139.528 87.6997 139.751C86.3515 139.959 85.1284 139.695 84.2111 138.583C83.2382 137.415 82.5711 136.15 82.1819 134.717C81.904 133.758 81.5704 132.812 81.2229 131.881C80.9867 131.269 80.7087 130.671 79.8331 130.351C79.7887 130.476 79.7329 130.599 79.6776 130.721C79.5597 130.981 79.4439 131.236 79.4439 131.491C79.4621 132.62 79.516 133.743 79.5706 134.879C79.5994 135.478 79.6284 136.082 79.6524 136.692L79.6728 136.697C80.1788 136.82 80.6314 136.93 81.0839 137.067C81.5426 137.206 81.9179 137.429 81.8484 137.957C81.7928 138.388 81.1673 139.07 80.7782 139.07C80.0838 139.083 79.3928 139.087 78.7036 139.09C78.0134 139.094 77.3249 139.097 76.6364 139.111C76.4061 139.111 76.1757 139.148 75.9454 139.184C75.7727 139.211 75.6 139.238 75.4272 139.25C74.3431 139.334 74.0096 139.014 74.0513 137.957V137.304C74.1854 137.286 74.3172 137.264 74.4475 137.242C74.6276 137.211 74.805 137.181 74.9825 137.165C76.0387 137.067 76.1499 137.012 76.2194 135.997C76.3002 134.796 76.3331 133.585 76.3658 132.381C76.3725 132.135 76.3792 131.89 76.3862 131.644C76.3948 131.335 76.3769 131.027 76.3554 130.655C76.3421 130.425 76.3274 130.171 76.3167 129.879C76.1141 130.017 75.9256 130.127 75.7574 130.226C75.4524 130.404 75.2141 130.543 75.0798 130.741C74.4821 131.631 73.954 132.576 73.4536 133.535C73.2477 133.911 73.1368 134.34 73.0289 134.756C73.013 134.818 72.9971 134.879 72.9811 134.94C72.5919 136.497 71.7024 137.762 70.3959 138.736ZM84.1486 134.425C84.1173 134.318 84.0861 134.21 84.0583 134.106L84.0444 134.119C84.0096 134.126 83.9749 134.137 83.9401 134.147C83.9054 134.158 83.8706 134.168 83.8359 134.175L84.0722 134.801C84.1277 134.773 84.1833 134.759 84.2389 134.745C84.2111 134.641 84.1799 134.533 84.1486 134.425Z" fill="#122F4A" style="fill:#122F4A;fill:color(display-p3 0.0693 0.1849 0.2917);fill-opacity:1;"/>
<path d="M126.032 138.374C126.171 138.249 126.296 138.166 126.296 138.166L126.324 138.194C127.979 137.838 127.978 137.832 127.912 136.203L127.908 136.122C127.874 135.225 127.867 134.328 127.86 133.431C127.853 132.534 127.846 131.637 127.811 130.741C127.762 129.65 127.666 128.56 127.57 127.47C127.529 127.003 127.487 126.536 127.45 126.069C127.405 125.457 127.348 124.846 127.291 124.231C127.26 123.894 127.229 123.557 127.2 123.218C127.016 123.169 126.846 123.123 126.685 123.079C126.482 123.024 126.294 122.973 126.115 122.926C126.041 121.675 126.644 121.049 127.922 121.049H131.564C131.869 121.577 132.161 122.217 131.814 123.01C131.592 123.065 131.369 123.121 131.133 123.176C130.716 123.274 130.507 123.496 130.48 123.899C130.473 124.009 130.452 124.116 130.431 124.221C130.406 124.342 130.382 124.462 130.382 124.581C130.373 124.794 130.379 125.011 130.385 125.23C130.398 125.667 130.41 126.106 130.299 126.514C130.241 126.736 130.142 126.949 130.043 127.163C129.882 127.508 129.721 127.856 129.729 128.252V129.322H130.021C130.049 129.218 130.08 129.117 130.111 129.017C130.143 128.916 130.174 128.815 130.202 128.711H130.382C130.403 129.774 130.428 130.834 130.452 131.895C130.476 132.955 130.5 134.015 130.521 135.079C130.535 135.42 130.535 135.764 130.535 136.108C130.535 136.452 130.535 136.796 130.549 137.137C130.577 137.957 130.633 137.999 131.494 138.166C132.37 138.333 132.37 138.36 132.286 139.403H126.102L126.093 139.284C126.068 138.951 126.044 138.635 126.032 138.374Z" fill="#122F4A" style="fill:#122F4A;fill:color(display-p3 0.0693 0.1849 0.2917);fill-opacity:1;"/>
<path d="M93.1055 131.921C92.8791 131.887 92.673 131.856 92.4669 131.839L92.4391 131.811C91.1605 131.714 90.6462 131.019 91.0215 129.879C91.0594 129.774 91.1039 129.683 91.1592 129.569C91.1849 129.516 91.213 129.458 91.2438 129.392L92.7866 129.183C93.7039 129.044 93.7873 129.003 93.9263 128.127C94.0097 127.668 94.0097 127.209 94.0097 126.75V123.149C92.8005 122.759 92.3557 122.245 92.592 121.452C92.6615 121.202 92.9812 120.854 93.1896 120.854C95.0521 120.785 96.9145 120.785 98.7769 120.785C98.7938 120.785 98.8157 120.8 98.8553 120.828C98.8809 120.846 98.9139 120.869 98.9576 120.896V122.857C98.9139 122.866 98.8718 122.875 98.831 122.884C98.5733 122.941 98.3693 122.986 98.1654 123.01C96.9423 123.163 96.8589 123.232 96.7894 124.331C96.7662 124.725 96.7415 125.119 96.7168 125.513C96.6674 126.301 96.618 127.089 96.5809 127.876C96.5392 128.766 96.9006 129.1 97.8874 129.128C100.042 129.197 102.182 129.253 104.336 129.295C105.281 129.308 105.601 129.016 105.559 128.127C105.498 126.967 105.408 125.808 105.314 124.617C105.28 124.179 105.246 123.736 105.212 123.288C105.028 123.261 104.845 123.232 104.651 123.201C104.434 123.166 104.204 123.13 103.947 123.093V121.007C104.064 120.995 104.18 120.982 104.296 120.97C105.982 120.787 107.635 120.608 109.312 120.66C109.548 120.674 109.882 120.966 109.965 121.188C110.066 121.463 110.106 121.762 110.15 122.085C110.173 122.252 110.196 122.426 110.229 122.606C110.133 122.647 110.04 122.689 109.948 122.73C109.697 122.842 109.459 122.948 109.215 123.01C108.589 123.163 108.353 123.538 108.353 124.094V129.281L108.478 129.301C108.999 129.388 109.398 129.455 109.785 129.545C110.493 129.712 110.924 130.129 110.98 130.657C111.091 131.783 110.771 132.117 109.562 132.117H109.312C107.755 132.062 107.741 132.062 107.797 133.577C107.827 134.413 107.877 135.249 107.928 136.105C107.95 136.459 107.971 136.816 107.992 137.178C108.136 137.197 108.269 137.219 108.396 137.24C108.55 137.265 108.695 137.288 108.839 137.304C109.979 137.415 110.229 137.679 110.188 138.764C110.177 138.88 110.151 138.987 110.114 139.136C110.103 139.183 110.09 139.235 110.076 139.292C108.775 139.521 107.474 139.478 106.142 139.435C105.452 139.412 104.755 139.389 104.044 139.403C103.992 138.995 103.94 138.613 103.888 138.231C103.857 138.003 103.826 137.774 103.794 137.54C104.295 137.443 104.642 137.387 105.003 137.331V132.228C104.847 132.217 104.709 132.2 104.582 132.185C104.405 132.164 104.248 132.145 104.086 132.145C103.368 132.122 102.65 132.103 101.932 132.085C100.496 132.048 99.0596 132.011 97.6233 131.936C96.9562 131.909 96.7338 132.201 96.6921 132.715C96.6361 133.547 96.5893 134.374 96.5412 135.226C96.5056 135.855 96.4693 136.497 96.428 137.165H97.8874C98.6796 137.192 98.902 137.387 98.9298 138.11C98.9715 139.083 98.5684 139.501 97.526 139.501C96.5166 139.51 95.5133 139.507 94.508 139.504C94.0045 139.502 93.5006 139.501 92.9951 139.501C91.7164 139.487 91.5496 139.32 91.6886 138.166C91.7063 138.024 91.7409 137.882 91.7816 137.716C91.8049 137.62 91.8301 137.517 91.8554 137.401C92.0889 137.382 92.3012 137.362 92.5135 137.343C92.7561 137.32 92.9988 137.298 93.273 137.276L93.3147 136.624C93.412 135.105 93.5093 133.586 93.6066 131.992C93.4257 131.969 93.2608 131.944 93.1055 131.921Z" fill="#122F4A" style="fill:#122F4A;fill:color(display-p3 0.0693 0.1849 0.2917);fill-opacity:1;"/>
<path d="M144.211 117.017C145.56 117.017 145.643 117.072 145.838 118.546C144.902 118.88 143.951 118.828 142.995 118.775C142.36 118.74 141.722 118.705 141.084 118.783C141.001 118.143 140.931 117.628 140.848 117.031C140.933 117.023 141.015 117.013 141.095 117.004C141.293 116.982 141.48 116.961 141.668 116.961C142.007 116.967 142.346 116.977 142.685 116.987C143.194 117.002 143.703 117.017 144.211 117.017Z" fill="#122F4A" style="fill:#122F4A;fill:color(display-p3 0.0693 0.1849 0.2917);fill-opacity:1;"/>
<path fill-rule="evenodd" clip-rule="evenodd" d="M116.331 139.64C115.219 139.501 114.107 139.334 113.009 139.167L113.023 139.153C113.106 138.495 113.658 138.05 114.677 137.818C114.885 136.593 114.904 135.334 114.922 134.074C114.933 133.318 114.944 132.562 114.997 131.811C113.746 131.352 113.204 130.727 113.315 129.934C113.429 129.144 114.052 129.033 114.742 128.91C114.89 128.883 115.041 128.856 115.191 128.822C115.191 128.594 115.19 128.367 115.188 128.141C115.185 127.693 115.182 127.25 115.191 126.806C115.205 126.375 115.226 125.94 115.247 125.506C115.268 125.071 115.288 124.637 115.302 124.205C115.316 123.747 115.163 123.385 114.621 123.26C113.954 123.107 113.676 122.745 113.773 122.092C113.793 121.9 113.746 121.702 113.692 121.475C113.668 121.372 113.642 121.263 113.621 121.146C113.741 121.131 113.853 121.112 113.959 121.095C114.145 121.063 114.314 121.035 114.482 121.035C116.025 121.035 117.568 121.035 119.111 121.077C119.444 121.077 119.972 121.105 120.083 121.299C120.334 121.716 120.403 122.231 120.459 122.704C120.473 122.843 120.195 123.065 120 123.149C119.825 123.217 119.624 123.237 119.423 123.257C119.337 123.266 119.25 123.275 119.166 123.288C118.61 123.385 118.318 123.663 118.291 124.219C118.209 125.484 118.109 126.748 118.005 128.053C117.985 128.312 117.964 128.573 117.943 128.836C118.017 128.852 118.089 128.871 118.159 128.89C118.325 128.933 118.482 128.975 118.638 128.975C120.153 128.961 121.543 129.475 122.835 130.087C124.434 130.852 125.017 132.312 125.129 133.897C125.137 134.016 125.15 134.137 125.163 134.258C125.232 134.922 125.305 135.618 124.753 136.205C124.712 136.261 124.684 136.372 124.712 136.428C125.115 137.234 124.601 137.679 124.017 138.166L124.006 138.174C123.482 138.602 123.011 138.987 122.252 139.056C121.333 139.151 120.418 139.282 119.503 139.413C118.813 139.512 118.122 139.612 117.429 139.695C117.067 139.751 116.692 139.695 116.331 139.64ZM124.809 134.022L124.587 133.299L124.601 133.285L124.434 133.327L124.614 134.064C124.67 134.05 124.809 134.022 124.809 134.022ZM121.432 133.091C120.681 132.131 119.305 131.797 117.915 132.27V137.79C119.416 137.776 120.764 137.582 121.696 136.469C122.488 135.524 122.349 134.245 121.432 133.091Z" fill="#122F4A" style="fill:#122F4A;fill:color(display-p3 0.0693 0.1849 0.2917);fill-opacity:1;"/>
<path fill-rule="evenodd" clip-rule="evenodd" d="M149.827 136.873C149.854 137.47 150.257 137.846 150.758 138.124H150.786C151.244 138.374 151.633 138.638 151.508 139.181C151.369 139.765 150.855 139.932 150.285 139.904C149.368 139.864 148.444 139.81 147.539 139.757C147.181 139.736 146.827 139.715 146.477 139.695C146.213 139.111 146.213 138.638 146.741 138.513C147.701 138.283 147.701 137.632 147.7 136.956L147.7 136.9C147.7 135.357 147.693 133.814 147.686 132.27C147.679 130.727 147.672 129.183 147.672 127.64V124.261C146.921 124.63 146.66 125.163 146.407 125.678C146.384 125.725 146.361 125.772 146.338 125.818C144.375 129.65 143.027 133.683 141.678 137.72L141.599 137.957C141.265 138.944 140.779 139.389 139.708 139.57C138.556 139.766 137.436 139.703 136.281 139.638C136.127 139.629 135.972 139.62 135.817 139.612C135.761 138.917 136.011 138.625 136.665 138.499C137.693 138.305 137.804 138.194 137.804 137.192C137.832 134.439 137.832 131.7 137.804 128.947C137.796 127.936 137.759 126.931 137.724 125.927C137.702 125.33 137.681 124.733 137.665 124.136V123.023C137.374 122.996 137.103 122.971 136.832 122.947C136.561 122.923 136.289 122.898 135.997 122.871V121.146C136.132 121.123 136.269 121.094 136.408 121.066C136.755 120.994 137.113 120.92 137.471 120.91C138.485 120.868 139.514 120.896 140.528 120.924C141.835 120.952 142.057 121.174 142.141 122.676C141.989 122.701 141.846 122.734 141.71 122.765C141.471 122.82 141.25 122.871 141.029 122.871C140.362 122.871 140.181 123.218 140.181 123.747C140.181 124.651 140.178 125.555 140.175 126.457C140.169 128.258 140.162 130.056 140.181 131.853C140.19 132.423 140.243 132.994 140.302 133.627C140.336 133.997 140.372 134.389 140.403 134.815C140.652 134.24 140.883 133.698 141.105 133.177C141.442 132.387 141.758 131.645 142.085 130.907C143.141 128.474 144.211 126.041 145.282 123.621C146.171 121.619 147.7 120.785 150.007 120.993C150.786 121.063 151.23 121.383 151.189 121.897C151.147 122.509 150.702 122.731 150.104 122.759C149.959 122.771 149.825 122.794 149.628 122.827C149.598 122.832 149.567 122.837 149.535 122.843V124.511C149.542 125.248 149.548 125.985 149.554 126.722C149.572 128.924 149.59 131.129 149.632 133.327C149.642 134.154 149.699 134.982 149.756 135.809C149.781 136.164 149.806 136.518 149.827 136.873ZM141.696 122.175C141.765 121.675 141.432 121.494 140.987 121.383L140.973 121.397C140.938 121.424 140.904 121.456 140.869 121.487C140.834 121.518 140.799 121.55 140.765 121.577C140.918 121.675 141.074 121.776 141.231 121.877C141.387 121.977 141.543 122.078 141.696 122.175Z" fill="#122F4A" style="fill:#122F4A;fill:color(display-p3 0.0693 0.1849 0.2917);fill-opacity:1;"/>
<path d="M102.56 173.25C102.578 173.379 102.595 173.508 102.613 173.637V173.609C102.643 173.815 102.671 174.023 102.698 174.23C102.771 174.778 102.843 175.327 102.974 175.861C103.113 176.418 102.905 176.682 102.377 176.751C102.027 176.799 101.677 176.82 101.318 176.842C101.149 176.853 100.979 176.863 100.806 176.876C100.292 175.639 100.125 174.443 100.195 173.164H94.3571C94.3219 173.36 94.2758 173.547 94.2313 173.728C94.1527 174.047 94.0792 174.345 94.0792 174.638C94.0492 175.454 94.0475 176.274 94.0458 177.096C94.0443 177.801 94.0428 178.507 94.0236 179.212C94.0163 179.424 93.9671 179.635 93.9178 179.846C93.8731 180.038 93.8283 180.23 93.8151 180.422C93.8093 180.561 93.8489 180.723 93.8864 180.876C93.9393 181.093 93.988 181.292 93.8985 181.382C93.6939 181.586 93.7631 181.71 93.8313 181.832C93.865 181.892 93.8985 181.952 93.8985 182.021C93.8985 182.633 94.3154 182.828 94.8019 182.855C95.3574 182.876 95.9203 182.844 96.4478 182.815C96.6462 182.804 96.8396 182.794 97.0257 182.786C97.0669 182.729 97.1043 182.686 97.1351 182.65C97.1872 182.59 97.2203 182.552 97.2203 182.508C97.3036 180.7 97.3731 180.645 99.4162 180.881C99.4262 180.916 99.4417 180.953 99.4573 180.99C99.4851 181.057 99.5135 181.125 99.5135 181.187C99.4718 182.897 99.4162 184.621 99.3606 186.304C97.6233 186.749 97.1507 186.499 97.0952 184.997C96.7256 185.015 96.356 185.035 95.9799 185.056C95.479 185.084 94.9664 185.112 94.4266 185.136C94.4043 185.314 94.3778 185.485 94.3519 185.652C94.2973 186.004 94.2459 186.335 94.2459 186.665C94.2737 189.113 94.3293 191.546 94.3988 193.993C94.4266 194.953 94.4405 194.98 95.4134 194.953C96.3161 194.925 97.225 194.867 98.1682 194.806C98.6482 194.776 99.1371 194.744 99.6386 194.716V192.38H102.113C102.14 192.417 102.168 192.45 102.193 192.479C102.242 192.536 102.279 192.58 102.279 192.617C102.283 192.978 102.289 193.34 102.295 193.701C102.313 194.786 102.331 195.87 102.279 196.955C102.238 197.845 102.099 197.886 101.14 197.928C100.481 197.953 99.8221 197.982 99.1634 198.011C97.6261 198.078 96.0889 198.145 94.5517 198.165C93.577 198.174 92.5961 198.121 91.6173 198.068C91.1306 198.042 90.6444 198.016 90.1598 197.998C89.6316 197.984 89.298 197.761 89.2702 197.261C89.2518 196.78 89.2578 196.306 89.264 195.825C89.2671 195.583 89.2702 195.339 89.2702 195.092C89.5919 195.029 89.8985 195.028 90.1834 195.027C90.7234 195.025 91.1852 195.024 91.5218 194.605C91.4873 194.037 91.4492 193.474 91.4114 192.915C91.3427 191.9 91.2748 190.895 91.2299 189.891C91.1804 188.79 91.1661 187.682 91.152 186.576C91.1463 186.132 91.1406 185.689 91.1327 185.247C90.4969 185.197 89.9266 185.157 89.3702 185.118C89.0022 185.092 88.6403 185.066 88.2695 185.039V183.175C88.3949 183.157 88.5199 183.139 88.6447 183.122C89.3916 183.015 90.1282 182.909 90.8547 182.814C91.2994 180.992 91.0215 175.722 90.7574 173.512C90.74 173.501 90.7226 173.49 90.7053 173.478C90.6531 173.445 90.601 173.411 90.5489 173.4C89.5204 173.178 89.0896 172.552 89.4231 171.62C89.5065 171.384 89.8123 171.148 90.0764 171.036C90.2626 170.949 90.5006 170.956 90.7292 170.963C90.7906 170.965 90.8514 170.967 90.9103 170.967L90.931 170.967C92.9534 170.981 94.9895 170.995 97.0118 171.036C98.1398 171.064 99.2739 171.11 100.459 171.159C101.056 171.183 101.665 171.208 102.293 171.231C102.375 171.887 102.467 172.563 102.56 173.25Z" fill="#122F4A" style="fill:#122F4A;fill:color(display-p3 0.0693 0.1849 0.2917);fill-opacity:1;"/>
<path d="M72.9672 199.36C73.0691 199.676 72.9162 199.847 72.5085 199.875C72.5659 199.812 72.6233 199.746 72.6836 199.677C72.7693 199.579 72.8611 199.475 72.9672 199.36Z" fill="#122F4A" style="fill:#122F4A;fill:color(display-p3 0.0693 0.1849 0.2917);fill-opacity:1;"/>
<path fill-rule="evenodd" clip-rule="evenodd" d="M43.8236 161.048C43.7448 160.46 43.6656 159.87 43.5994 159.273L43.6133 159.217C43.5716 158.759 43.3214 158.522 42.835 158.522H41.1254C40.9756 158.982 40.8365 159.438 40.6986 159.89C40.4526 160.697 40.2101 161.493 39.9162 162.277C39.3881 163.681 38.3457 164.613 36.7057 164.738C34.1205 164.932 32.7724 163.403 32.9391 161.345C32.9808 160.858 33.1893 160.441 33.7731 160.358C34.329 160.288 34.6765 160.538 34.9266 161.011C35.1629 161.442 35.4548 161.873 35.7884 162.249C36.386 162.916 37.1365 162.847 37.5257 162.054C37.7334 161.627 37.8453 161.161 37.9569 160.697C37.9797 160.602 38.0024 160.508 38.026 160.413C38.1314 159.963 38.2169 159.506 38.3054 159.033C38.3454 158.82 38.3859 158.604 38.4291 158.383C37.9478 158.32 37.4953 158.259 37.0546 158.2C36.5282 158.13 36.0185 158.062 35.4965 157.994C35.4559 157.903 35.4098 157.815 35.3642 157.728C35.2848 157.577 35.2071 157.43 35.1629 157.271C34.9266 156.353 35.3297 155.88 36.3443 155.922C36.7893 155.944 37.2305 155.974 37.6961 156.005C38.1174 156.033 38.5586 156.062 39.0406 156.089C39.3326 154.804 39.6215 153.54 39.9088 152.283C40.237 150.847 40.5631 149.421 40.8892 147.982C40.1386 147.871 39.3603 147.746 38.5264 147.607C38.5264 147.443 38.5211 147.296 38.5162 147.158C38.5073 146.91 38.4996 146.696 38.5264 146.481C38.6237 145.716 38.8461 145.507 39.6939 145.494C41.5285 145.452 43.3631 145.424 45.1977 145.41C46.8517 145.382 47.1991 145.813 46.7405 147.468C46.4176 147.499 46.0635 147.531 45.6432 147.568C45.5025 147.58 45.3545 147.593 45.1977 147.607C45.0448 150.485 45.434 153.322 45.9344 156.27C46.7266 156.339 47.4771 156.409 48.2276 156.478C48.8114 157.855 48.5751 158.119 46.3235 158.55C46.3308 158.662 46.337 158.775 46.3434 158.889C46.3614 159.213 46.3797 159.542 46.4208 159.871C46.4799 160.327 46.5543 160.788 46.6285 161.247C46.6766 161.545 46.7246 161.842 46.7683 162.137C46.9212 163.152 47.0323 163.264 48.172 163.292H49.3117C49.3673 163.819 49.4228 164.264 49.4783 164.709C49.5339 165.112 49.3673 165.419 48.9087 165.419C46.8656 165.475 44.8364 165.502 42.7933 165.516C42.727 165.516 42.6543 165.465 42.5708 165.406C42.5317 165.378 42.4902 165.348 42.4458 165.322C42.4608 165.051 42.4799 164.777 42.4986 164.507C42.5146 164.277 42.5303 164.051 42.5431 163.834C43.5994 163.519 44.0627 162.865 43.9329 161.873C43.8975 161.598 43.8606 161.323 43.8236 161.048ZM42.7794 151.205C42.696 151.193 42.6126 151.181 42.5292 151.181V151.194C42.2276 152.061 42.0282 153.417 41.8499 154.63C41.7734 155.15 41.7009 155.644 41.6258 156.061C41.8343 156.087 42.0205 156.11 42.2028 156.133C42.5186 156.173 42.8225 156.212 43.2102 156.256C43.1523 155.487 43.0981 154.507 43.0457 153.56C42.9976 152.69 42.951 151.848 42.9045 151.222C42.8628 151.218 42.8211 151.211 42.7794 151.205Z" fill="#122F4A" style="fill:#122F4A;fill:color(display-p3 0.0693 0.1849 0.2917);fill-opacity:1;"/>
<path fill-rule="evenodd" clip-rule="evenodd" d="M27.1434 183.092C29.0475 183.259 30.9516 183.481 32.8419 183.718V183.731C34.1483 183.884 35.1212 184.538 36.0524 185.428C38.1789 187.444 38.5125 189.822 37.9982 192.408C37.3867 195.509 35.0517 196.983 31.994 197.72C29.8396 198.227 27.6577 198.222 25.478 198.217C24.972 198.216 24.4661 198.215 23.9606 198.22C23.173 198.23 22.3919 198.012 21.5907 197.789C21.2184 197.686 20.8418 197.581 20.4582 197.497C19.9439 195.258 20.1107 195.064 22.404 195.189H22.8904C23.3213 194.216 23.1962 186.818 22.6959 185.164H20.6945C20.6667 184.538 20.6389 183.982 20.5972 183.342C21.0674 183.29 21.5048 183.243 21.9233 183.198C22.1727 183.172 22.4154 183.146 22.6542 183.12C23.0989 181.854 22.8765 175.041 22.3762 173.164C22.2253 173.164 22.0714 173.167 21.9155 173.17C21.5975 173.176 21.2711 173.183 20.9446 173.164C20.2636 173.122 20.0134 172.872 19.9856 172.232C19.9766 171.942 19.9793 171.645 19.9824 171.323C19.984 171.152 19.9856 170.974 19.9856 170.786C20.1229 170.776 20.2522 170.761 20.3765 170.747C20.5793 170.724 20.7689 170.703 20.9585 170.703C21.7784 170.71 22.5991 170.717 23.4203 170.725C25.8983 170.749 28.3802 170.772 30.8544 170.772C31.5585 170.772 32.2627 170.735 32.9669 170.698C33.319 170.68 33.6711 170.661 34.0232 170.647C34.3012 170.633 34.5931 170.661 34.8711 170.689C36.3443 170.828 36.7335 171.148 36.7752 172.552C36.8169 174.193 36.7613 175.834 36.6779 177.474C36.6223 178.475 36.1358 178.907 35.2046 178.948C34.5236 178.976 33.6341 178.295 33.5368 177.53C33.3978 176.473 33.3144 175.403 33.3144 174.346C33.3005 173.386 33.0503 173.011 32.0079 172.983C31.2911 172.975 30.57 172.989 29.847 173.003C29.2663 173.014 28.6844 173.025 28.1024 173.025H26.1983C26.1827 173.099 26.1649 173.172 26.1474 173.244C26.1025 173.428 26.0593 173.606 26.0593 173.776C26.0704 174.44 26.0903 175.107 26.1102 175.775C26.1403 176.784 26.1705 177.797 26.1705 178.809C26.1705 179.298 26.1093 179.794 26.0477 180.291C26.0166 180.543 25.9854 180.796 25.962 181.048C25.9342 181.354 25.9203 181.66 25.9203 181.966C25.9481 182.883 26.1288 182.995 27.1434 183.092ZM34.6626 177.447C35.2046 177.641 35.4965 177.739 35.7328 177.015C35.5395 177.094 35.3882 177.154 35.2458 177.211C35.0606 177.285 34.8905 177.352 34.6626 177.447ZM32.6095 171.543C32.5019 171.603 32.3974 171.66 32.2929 171.718C32.1851 171.777 32.0774 171.836 31.9662 171.899C31.9871 171.926 32.0114 171.954 32.0358 171.982C32.0601 172.01 32.0844 172.038 32.1052 172.065C32.2025 172.003 32.3032 171.937 32.404 171.871C32.5048 171.805 32.6056 171.739 32.7029 171.676C32.6791 171.64 32.6247 171.564 32.6095 171.543ZM25.3227 177.78C25.0911 178.114 25.1189 178.619 25.4061 179.296C25.4211 179.233 25.4361 179.173 25.4505 179.114C25.5959 178.525 25.6894 178.147 25.3227 177.78ZM31.4242 196.802C31.452 196.871 31.5076 196.997 31.5076 196.997C31.6049 196.955 31.7056 196.91 31.8064 196.864C31.9072 196.819 32.0079 196.774 32.1052 196.732C32.0913 196.691 32.0635 196.635 32.0496 196.593L31.4242 196.802ZM31.8829 195.231C32.6473 195.133 33.2449 194.674 33.6341 194.077L33.6202 194.09C34.7599 192.352 35.149 190.475 34.468 188.515C34.2595 187.931 33.7731 187.388 33.3144 186.93C31.7762 185.379 29.7924 185.261 27.7858 185.142C27.3629 185.116 26.939 185.091 26.518 185.052C26.4875 185.159 26.4552 185.249 26.4265 185.329C26.3765 185.468 26.3373 185.577 26.3373 185.692C26.457 188.499 26.5893 191.293 26.7223 194.098L26.7404 194.48C26.7821 195.314 27.0322 195.648 27.8939 195.62C29.2282 195.578 30.5625 195.411 31.8829 195.231Z" fill="#122F4A" style="fill:#122F4A;fill:color(display-p3 0.0693 0.1849 0.2917);fill-opacity:1;"/>
<path fill-rule="evenodd" clip-rule="evenodd" d="M70.3959 162.902C70.0762 163.987 69.5203 164.835 68.3389 165.085L68.325 165.127C67.1297 165.391 66.0318 165.169 65.1283 164.209C64.3639 163.389 63.6551 162.582 63.5717 161.442C63.5675 161.409 63.563 161.375 63.5584 161.34C63.5329 161.149 63.5064 160.95 63.53 160.761C63.6273 159.968 63.9748 159.565 64.5446 159.509C65.0589 159.468 65.8372 159.927 66.0873 160.455C66.1626 160.616 66.2274 160.782 66.2923 160.947C66.3953 161.21 66.4984 161.473 66.6433 161.72C67.0602 162.429 67.8247 162.527 68.3111 161.887C69.0061 160.969 69.3674 159.941 69.284 158.675C68.5891 158.633 67.9498 158.592 67.3104 158.55C66.1012 158.481 65.8928 158.202 66.1012 157.062C66.1332 156.892 66.1407 156.721 66.1487 156.538C66.1511 156.482 66.1536 156.425 66.1568 156.367C66.8456 155.968 67.5702 156.041 68.2895 156.115C68.5717 156.144 68.8531 156.172 69.1311 156.172C69.9095 156.172 70.1735 156.075 70.3542 155.394C70.4663 154.966 70.5186 154.523 70.5714 154.076C70.5906 153.913 70.6099 153.749 70.6322 153.586C70.8546 151.932 71.063 150.263 71.2715 148.595C71.2879 148.422 71.2995 148.245 71.312 148.054C71.3206 147.922 71.3296 147.783 71.341 147.635C71.1157 147.617 70.8998 147.6 70.6892 147.583C70.2243 147.546 69.7849 147.511 69.3257 147.482C69.3008 147.407 69.2733 147.336 69.2467 147.267C69.1845 147.105 69.127 146.956 69.1172 146.801C69.0061 145.41 69.423 145.09 70.8824 145.438C70.9155 145.445 70.9491 145.453 70.9829 145.46C71.1476 145.497 71.3186 145.535 71.48 145.535C72.073 145.529 72.6661 145.512 73.2591 145.495C74.0003 145.473 74.7416 145.452 75.4828 145.452C75.9806 145.452 76.4785 145.487 76.9878 145.523C77.2606 145.543 77.5366 145.562 77.8178 145.577C77.852 145.724 77.8931 145.858 77.932 145.986C78.0037 146.221 78.068 146.431 78.068 146.648C78.068 147.134 77.8873 147.524 77.234 147.565C76.8365 147.585 76.4457 147.638 76.0144 147.697C75.8276 147.722 75.6331 147.749 75.4272 147.774C75.2375 149.83 75.3035 151.869 75.3708 153.948C75.3922 154.611 75.4138 155.277 75.4272 155.95C75.8087 155.969 76.1692 155.983 76.5184 155.996C76.9197 156.011 77.3062 156.025 77.6927 156.047C78.8324 156.131 78.9575 156.256 78.8463 157.313C78.828 157.504 78.7859 157.695 78.7395 157.906C78.7151 158.017 78.6895 158.134 78.6656 158.258H75.316C75.3011 158.392 75.2842 158.523 75.2677 158.65C75.2227 158.996 75.1808 159.319 75.1909 159.635C75.211 160.096 75.2673 160.565 75.3232 161.031C75.3447 161.211 75.3662 161.389 75.3855 161.567C75.4967 162.513 75.6496 162.652 76.6503 162.749C76.888 162.777 77.1292 162.802 77.388 162.828C77.6438 162.854 77.9169 162.882 78.2208 162.916C78.2324 163.009 78.244 163.101 78.2556 163.194C78.3135 163.655 78.3714 164.117 78.4293 164.626C76.4983 165.246 74.5992 165.027 72.667 164.804C72.3879 164.772 72.1081 164.74 71.8275 164.71C71.897 164.126 71.9665 163.57 72.0499 162.958L72.8421 162.791C73.3146 162.694 73.5231 162.402 73.5231 161.971V158.411C73.2122 158.386 72.9108 158.367 72.5965 158.346C72.3769 158.332 72.1509 158.317 71.9109 158.3C71.7642 158.736 71.6153 159.167 71.4676 159.595C71.0835 160.707 70.7071 161.798 70.3959 162.902ZM73.34 152.51C73.301 152.474 73.262 152.439 73.2312 152.404C72.5502 153.03 72.3139 154.101 72.439 155.992C72.9255 156.158 73.3841 156.186 73.4258 155.672C73.5092 154.699 73.5092 153.711 73.5092 152.738C73.5092 152.662 73.4246 152.586 73.34 152.51Z" fill="#122F4A" style="fill:#122F4A;fill:color(display-p3 0.0693 0.1849 0.2917);fill-opacity:1;"/>
<path d="M43.7821 139.195C43.7675 139.195 43.753 139.195 43.7384 139.195L43.794 139.222C43.79 139.213 43.7861 139.204 43.7821 139.195Z" fill="#122F4A" style="fill:#122F4A;fill:color(display-p3 0.0693 0.1849 0.2917);fill-opacity:1;"/>
<path fill-rule="evenodd" clip-rule="evenodd" d="M44.8867 139.181C44.5165 139.188 44.1481 139.194 43.7821 139.195C42.9905 137.327 43.2621 136.87 45.3089 136.414C45.7541 135.843 45.7305 135.168 45.7079 134.522C45.703 134.381 45.6981 134.242 45.6981 134.106C45.6862 131.184 45.6129 128.272 45.5397 125.362C45.5275 124.879 45.5154 124.396 45.5035 123.913C45.4945 123.528 45.4625 123.137 45.4297 122.737C45.4116 122.516 45.3932 122.292 45.3784 122.064C45.2795 122.05 45.1824 122.037 45.0869 122.024C44.8065 121.985 44.5396 121.949 44.2804 121.897C43.655 121.758 43.3909 121.424 43.4048 120.84C43.4187 120.256 43.8635 120.159 44.3221 120.145C45.8649 120.09 47.4076 120.034 48.9504 120.034C49.4229 120.034 49.965 120.159 50.09 120.715C50.2012 121.216 50.0205 121.563 49.4924 121.828C49.27 121.925 49.0893 122.314 49.0893 122.579C49.0893 126.305 49.1171 130.045 49.1588 133.786C49.1588 133.818 49.1914 133.85 49.2483 133.906C49.2899 133.948 49.3445 134.001 49.409 134.078C49.6902 133.575 49.9713 133.079 50.2504 132.586C50.813 131.592 51.3674 130.613 51.8969 129.628C52.2489 128.971 52.5905 128.308 52.9319 127.646C54.1137 125.354 55.2937 123.065 56.9004 120.993C57.4285 120.312 58.0261 119.937 58.9296 119.978C59.416 119.999 59.9025 120.013 60.3889 120.027C60.8754 120.041 61.3618 120.055 61.8483 120.076C62.0567 120.076 62.2791 120.076 62.4459 120.173C62.4705 120.187 62.4956 120.201 62.5211 120.216C62.7991 120.373 63.1236 120.557 63.2381 120.799C63.3769 121.113 63.1461 121.2 62.9107 121.289C62.7925 121.333 62.6731 121.378 62.5988 121.452C62.5686 121.482 62.5425 121.517 62.5115 121.558C62.4856 121.592 62.4562 121.63 62.4181 121.675C62.6266 121.73 62.8212 121.786 63.0019 121.842C63.0158 121.897 63.0297 121.953 63.0297 122.008C62.9211 122.013 62.8141 122.02 62.7076 122.026C62.5006 122.038 62.2956 122.05 62.0845 122.05C61.1255 122.05 60.8198 122.273 60.8059 123.149C60.7781 124.463 60.7607 125.78 60.7433 127.097C60.726 128.415 60.7086 129.732 60.6808 131.047C60.6701 131.468 60.6492 131.892 60.6283 132.316C60.5947 132.997 60.561 133.679 60.5696 134.356C60.5796 134.896 60.6614 135.435 60.7479 136.006C60.7818 136.229 60.8163 136.457 60.8476 136.692C61.3739 136.741 61.8463 136.779 62.3028 136.816L62.4876 136.831C62.9741 136.873 63.1964 137.137 63.1964 137.596C63.2103 138.764 62.8073 139.222 61.5842 139.278C60.1665 139.362 58.735 139.417 57.3173 139.431C56.3166 139.445 56.2471 139.362 56.0803 138.416C56.0296 138.122 56.0159 137.82 56.0014 137.5C55.996 137.381 55.9906 137.261 55.9831 137.137L56.1385 137.089C56.7425 136.904 57.213 136.76 57.7899 136.581C57.8455 132.242 57.9011 127.904 57.9567 123.274C57.6882 123.721 57.4276 124.146 57.176 124.555C56.607 125.481 56.0843 126.331 55.6217 127.209C54.2543 129.767 52.9261 132.341 51.5959 134.919C51.1549 135.774 50.7137 136.629 50.2707 137.484C49.7009 138.597 48.9365 139.32 47.4632 139.209C46.6013 139.151 45.7394 139.166 44.8867 139.181ZM58.874 120.451C58.8879 120.437 58.7489 120.312 58.7489 120.312C58.6099 120.396 58.4848 120.493 58.3597 120.59L58.5543 120.785C58.6655 120.674 58.7767 120.562 58.874 120.451ZM48.589 126.611C48.6168 126.347 48.6446 126.069 48.6863 125.582H48.6724C48.1335 125.98 48.2224 126.259 48.3048 126.519C48.3117 126.54 48.3185 126.562 48.3249 126.583L48.589 126.611Z" fill="#122F4A" style="fill:#122F4A;fill:color(display-p3 0.0693 0.1849 0.2917);fill-opacity:1;"/>
<path d="M73.3702 198.957H73.2034C73.1061 198.804 73.1061 198.665 73.4119 198.54C73.398 198.707 73.3841 198.832 73.3702 198.957Z" fill="#122F4A" style="fill:#122F4A;fill:color(display-p3 0.0693 0.1849 0.2917);fill-opacity:1;"/>
<path d="M71.2872 199.684C71.6717 199.552 72.054 199.419 72.4946 199.374C72.1054 199.944 71.3271 200.153 70.6461 199.889C70.8669 199.83 71.0774 199.757 71.2872 199.684Z" fill="#122F4A" style="fill:#122F4A;fill:color(display-p3 0.0693 0.1849 0.2917);fill-opacity:1;"/>
<path fill-rule="evenodd" clip-rule="evenodd" d="M62.4181 185.233C62.4876 185.942 62.3486 186.109 61.5981 186.22L61.5842 186.234C60.9171 186.336 60.25 186.42 59.5664 186.505C59.2246 186.548 58.8786 186.591 58.5265 186.638C58.3319 187.486 58.3458 188.32 58.5126 189.196C58.6461 189.897 58.7412 190.605 58.8363 191.313C58.9391 192.079 59.042 192.845 59.1936 193.604C59.4577 194.98 59.6245 195.036 61.1672 195.022C61.314 195.022 61.4607 195.034 61.5993 195.045C61.7232 195.055 61.8406 195.064 61.9456 195.064C61.978 195.101 62.0089 195.132 62.0362 195.159C62.0907 195.214 62.1309 195.254 62.1401 195.3C62.6683 197.163 62.3764 197.553 60.3055 197.581C58.9996 197.59 57.6998 197.587 56.3979 197.584C55.7463 197.582 55.0941 197.581 54.4403 197.581C54.2592 197.581 54.078 197.551 53.9046 197.523C53.8119 197.508 53.7213 197.493 53.6342 197.483C53.4118 196.909 53.3655 196.121 53.4952 195.119H54.7461C55.3576 195.119 55.6078 194.925 55.5383 194.382C55.353 192.849 55.1576 191.321 54.9612 189.786C54.8334 188.787 54.7053 187.785 54.5793 186.777H52.0636C51.9842 187.258 51.9079 187.735 51.8321 188.209C51.6824 189.144 51.5348 190.067 51.3687 190.99C51.3226 191.248 51.2792 191.507 51.2358 191.766C51.0831 192.678 50.9305 193.589 50.6599 194.466C49.9094 196.844 47.4215 198.234 44.8642 197.789C43.9329 197.622 43.2102 197.191 42.7238 196.413C41.9871 195.203 41.32 193.965 41.598 192.519C41.6814 192.144 41.876 191.699 42.1678 191.449C42.7933 190.92 43.7523 191.212 44.0302 191.949C44.1118 192.174 44.1335 192.42 44.1558 192.673C44.1639 192.765 44.172 192.858 44.1831 192.95C44.5142 193.046 44.7653 193.29 45.0191 193.537C45.4259 193.932 45.8398 194.334 46.6015 194.146C46.6485 194.008 46.6959 193.87 46.7433 193.732C47.4808 191.582 48.2407 189.367 48.2276 186.832C48.0634 186.827 47.9026 186.822 47.7445 186.817C46.9928 186.792 46.3037 186.77 45.6147 186.804C44.8225 186.846 44.6279 186.79 44.5584 186.081C44.5199 185.735 44.5547 185.375 44.5889 185.02C44.6042 184.863 44.6193 184.706 44.6279 184.552H48.7697C48.8168 184.393 48.8719 184.233 48.9275 184.072C49.0524 183.709 49.1803 183.338 49.2283 182.953C49.5758 180.311 49.8955 177.655 50.2012 174.999C50.2387 174.624 50.2257 174.237 50.2132 173.866C50.2071 173.687 50.2012 173.512 50.2012 173.345C49.9978 173.268 49.7972 173.203 49.6035 173.14C49.2017 173.009 48.8289 172.888 48.5195 172.691C48.3807 172.608 48.359 172.364 48.3353 172.1C48.3234 171.967 48.3111 171.829 48.2832 171.704C49.3534 171.259 50.3958 171.148 51.4521 171.134C52.8698 171.106 54.3013 171.092 55.719 171.106C56.5807 171.12 57.4285 171.176 58.2763 171.287C59.2353 171.398 59.3048 171.537 59.2909 172.677C58.8505 172.75 58.41 172.819 57.9519 172.891C57.4415 172.971 56.9092 173.055 56.3305 173.15C56.6362 174.971 56.928 176.792 57.2197 178.613L57.22 178.615C57.3843 179.647 57.5529 180.685 57.7235 181.734C57.8561 182.549 57.9897 183.371 58.1234 184.204C58.791 184.41 59.4696 184.344 60.1627 184.276C60.8259 184.212 61.5025 184.145 62.1957 184.315C62.2171 184.401 62.2437 184.49 62.2711 184.583C62.3329 184.79 62.3989 185.012 62.4181 185.233ZM49.7009 192.867C49.7704 192.923 49.9094 193.02 49.9094 193.02C50.3263 192.825 50.4792 192.533 50.2012 191.852C50.0942 192.066 50.0099 192.24 49.9369 192.391C49.8487 192.574 49.7769 192.722 49.7009 192.867ZM52.4111 184.329C53.1894 184.371 53.8844 184.399 54.621 184.427L54.6071 184.413C54.6349 184.135 54.6488 183.982 54.6488 183.843C54.4542 181.687 54.2457 179.546 54.0233 177.391C54.0046 177.213 53.9161 177.047 53.8093 176.847C53.7579 176.751 53.7023 176.646 53.6481 176.529C53.5597 176.612 53.4783 176.678 53.4099 176.734C53.2847 176.836 53.2033 176.902 53.2033 176.974C53.0666 178.219 52.9336 179.464 52.7986 180.729C52.6728 181.907 52.5452 183.102 52.4111 184.329ZM58.6794 194.841C58.6655 194.758 58.6655 194.661 58.6655 194.577C58.5784 194.621 58.4813 194.587 58.3804 194.552C58.1916 194.486 57.9898 194.415 57.8177 194.841H58.6794Z" fill="#122F4A" style="fill:#122F4A;fill:color(display-p3 0.0693 0.1849 0.2917);fill-opacity:1;"/>
<path d="M9.59482 136.794C9.6301 137.414 9.66538 138.034 9.70066 138.764L9.68676 138.75C9.42417 138.794 9.17013 138.846 8.92144 138.896C8.39354 139.004 7.88978 139.106 7.37959 139.125C5.90634 139.181 4.43309 139.167 2.97373 139.125C2.11202 139.111 1.83404 138.722 1.79235 137.735C1.75065 136.859 1.91744 136.664 2.82085 136.497C3.86324 136.303 3.98833 136.136 3.94663 135.121C3.90494 134.265 3.87019 133.41 3.83545 132.555C3.8007 131.7 3.76595 130.845 3.72426 129.99C3.72206 129.92 3.72298 129.848 3.72391 129.777C3.72884 129.395 3.73385 129.008 3.2656 128.738C3.25802 128.776 3.25044 128.82 3.24286 128.865C3.22264 128.982 3.20243 129.1 3.18221 129.1C3.05108 129.103 2.91763 129.11 2.7835 129.117C2.34897 129.141 1.90733 129.164 1.51438 129.058C0.896292 128.891 0.956894 128.503 1.02156 128.088C1.04851 127.915 1.07616 127.738 1.05572 127.57C1.88964 127.529 2.65406 127.487 3.55747 127.431V121.828C3.47596 121.825 3.39388 121.823 3.31157 121.82C2.9869 121.812 2.65875 121.803 2.34829 121.758C1.66726 121.661 1.06962 121.16 1.05572 120.715C1.02793 120.173 1.68116 119.533 2.41779 119.436C3.91884 119.283 5.41989 119.158 6.92094 119.075C7.39349 119.047 7.90774 119.13 8.3525 119.283C8.99183 119.492 9.13082 119.839 9.01963 120.674C8.93566 120.695 8.8517 120.72 8.76698 120.745C8.62734 120.786 8.48566 120.828 8.3386 120.854C6.92094 121.119 6.78195 121.272 6.78195 122.565C6.78751 123.009 6.78862 123.452 6.78973 123.894C6.7914 124.558 6.79307 125.22 6.80975 125.888C6.82033 126.195 6.86311 126.502 6.91359 126.864C6.92944 126.977 6.94603 127.097 6.96263 127.223C7.82836 126.75 8.19385 126.041 8.5447 125.361C8.62757 125.2 8.70962 125.041 8.79725 124.887C9.19236 124.179 9.56118 123.46 9.93049 122.739C10.3666 121.889 10.8035 121.037 11.2851 120.201C11.8966 119.144 12.7306 119.019 13.8285 119.672C14.0926 119.825 14.3567 120.02 14.5652 120.256C15.4269 121.23 15.6215 123.524 14.9682 124.623C14.5235 125.373 13.9675 125.401 13.5645 124.636C13.3246 124.182 13.2109 123.67 13.0983 123.163C13.0869 123.112 13.0756 123.061 13.0641 123.01C13.0381 122.893 13.0547 122.763 13.0711 122.635C13.0899 122.488 13.1085 122.343 13.0641 122.217C12.9668 121.967 12.7167 121.577 12.5499 121.577C12.2441 121.591 11.8133 121.8 11.7021 122.036C10.9932 123.58 10.3539 125.137 9.71456 126.708C9.47828 127.264 9.54778 127.793 9.93694 128.335C10.378 128.936 10.79 129.554 11.2025 130.172C11.5438 130.684 11.8854 131.196 12.2441 131.7C12.8695 132.59 13.5228 133.466 14.2594 134.272C14.7459 134.801 15.4547 135.107 16.3442 135.343C16.368 135.205 16.3885 135.077 16.408 134.955C16.4455 134.721 16.4791 134.511 16.5249 134.3C16.6639 133.702 17.0808 133.313 17.5395 133.341C18.151 133.383 18.3873 133.716 18.429 134.481C18.4985 135.885 17.8869 136.942 16.5944 137.596C15.3018 138.263 13.9397 138.388 12.6889 137.498C12.258 137.192 11.9105 136.734 11.6465 136.275C11.4336 135.897 11.2232 135.517 11.0129 135.138C10.0009 133.314 8.99043 131.492 7.71316 129.823C7.58864 129.667 7.44862 129.519 7.31046 129.373C7.26357 129.324 7.2169 129.274 7.17111 129.225C7.12946 129.239 7.09127 129.253 7.05309 129.267C7.01483 129.281 6.97657 129.295 6.93484 129.308V136.233C7.83825 136.303 8.65826 136.372 9.57557 136.455C9.58199 136.569 9.5884 136.682 9.59482 136.794Z" fill="#122F4A" style="fill:#122F4A;fill:color(display-p3 0.0693 0.1849 0.2917);fill-opacity:1;"/>
<path d="M21.6257 136.845C22.0982 136.692 22.543 136.553 23.0572 136.4H23.0711C23.0016 134.078 22.9321 131.783 22.8488 129.364H20.2775C20.3723 128.89 20.4477 128.487 20.5214 128.093C20.5557 127.91 20.5896 127.728 20.625 127.543H22.7793C23.0989 126.708 23.1128 125.888 23.0155 125.054C22.9537 124.465 22.9147 123.87 22.8761 123.278C22.8626 123.072 22.8492 122.866 22.8349 122.662C22.7793 121.619 22.7376 121.577 21.584 121.341C21.4311 121.299 21.2782 121.258 21.1392 121.23C20.8474 119.964 21.028 119.756 22.2928 119.77C23.2731 119.779 24.2595 119.776 25.2917 119.773C25.8253 119.771 26.3713 119.77 26.9349 119.77C26.9802 119.996 27.0336 120.235 27.0908 120.49C27.139 120.705 27.1898 120.932 27.2407 121.174C26.1844 121.369 25.962 121.953 26.0315 122.843C26.0981 123.728 26.0801 124.62 26.062 125.509C26.0537 125.919 26.0454 126.328 26.0454 126.736C26.0454 127.403 26.1844 127.612 26.9071 127.543C28.1596 127.437 29.4066 127.492 30.655 127.547C31.3876 127.58 32.1207 127.612 32.8558 127.612C33.1116 127.612 33.3675 127.584 33.6519 127.553C33.8154 127.535 33.9883 127.516 34.1761 127.501C34.5295 125.927 34.3406 124.409 34.1462 122.848C34.1036 122.505 34.0607 122.161 34.0232 121.814C33.7649 121.801 33.5192 121.79 33.2771 121.78C33.0112 121.77 32.7497 121.759 32.4805 121.744C32.4436 121.695 32.4018 121.646 32.3591 121.595C32.2572 121.475 32.1501 121.349 32.0913 121.202C31.7578 120.451 31.994 119.951 32.8558 119.909C34.6348 119.825 36.4277 119.839 38.2067 119.867C38.6654 119.867 39.0684 120.117 39.0684 120.66C39.0545 121.132 38.86 121.55 38.3457 121.577C37.6091 121.619 37.4284 122.022 37.4562 122.565C37.5118 123.941 37.5952 125.304 37.6925 126.68C37.702 126.805 37.7444 126.922 37.7925 127.056C37.8144 127.117 37.8375 127.181 37.8593 127.251C38.165 127.264 38.443 127.278 38.721 127.292C38.9989 127.306 39.2908 127.334 39.5549 127.362C40.2915 128.933 40.0969 129.197 37.8315 129.781C37.8315 130.258 37.8282 130.736 37.8249 131.215C37.8131 132.943 37.8012 134.68 37.9426 136.4C38.0642 136.444 38.1653 136.486 38.2538 136.522C38.4182 136.591 38.5389 136.641 38.6654 136.65C39.3325 136.72 39.5966 137.039 39.541 137.651C39.5223 137.801 39.5539 137.957 39.585 138.111C39.6002 138.185 39.6153 138.26 39.6244 138.333C39.7078 138.889 39.4437 139.236 38.8739 139.32C37.1643 139.57 35.4548 139.556 33.787 139.056C32.9391 138.791 32.5639 137.123 33.2449 136.622C33.4138 136.5 33.665 136.473 33.9473 136.443C34.0831 136.428 34.2262 136.413 34.3707 136.386V129.976C33.6897 129.461 32.953 129.392 32.1608 129.364C30.1177 129.295 28.1163 129.573 25.9759 129.948C26.0368 130.734 26.0403 131.52 26.0438 132.307C26.0499 133.677 26.0561 135.05 26.3651 136.428C26.9627 136.469 27.4353 136.497 27.9078 136.525C27.9619 136.615 27.9663 136.727 27.9708 136.84C27.9801 137.076 27.9896 137.317 28.4499 137.373C28.6306 137.401 28.8252 138.166 28.8252 138.583C28.8252 138.99 28.4068 139.001 28.0589 139.011C28.0263 139.012 27.9944 139.013 27.9634 139.014C26.5875 139.097 25.1976 139.181 23.8217 139.25C23.502 139.264 23.1684 139.264 22.8488 139.209C22.0009 139.07 21.6813 138.736 21.6257 137.902C21.6166 137.683 21.6194 137.464 21.6224 137.23C21.624 137.107 21.6257 136.979 21.6257 136.845Z" fill="#122F4A" style="fill:#122F4A;fill:color(display-p3 0.0693 0.1849 0.2917);fill-opacity:1;"/>
<path d="M108.506 159.821C108.633 157.188 108.761 154.539 108.603 151.778V151.737C108.491 151.896 108.397 152.017 108.317 152.12C108.208 152.261 108.125 152.367 108.061 152.488C107.842 152.917 107.623 153.346 107.404 153.776C106.305 155.932 105.208 158.085 104.072 160.219C103.383 161.531 102.622 162.808 101.862 164.085C101.672 164.404 101.482 164.724 101.293 165.044C101.181 165.252 100.876 165.475 100.653 165.475C100.25 165.481 99.8455 165.501 99.4389 165.521C98.135 165.586 96.8112 165.651 95.4551 165.28C95.4551 165.174 95.449 165.066 95.4428 164.958C95.4305 164.74 95.418 164.52 95.4551 164.307C95.5663 163.667 95.8443 163.5 96.567 163.57L96.5924 163.572C97.7911 163.681 97.8604 163.687 97.9708 162.624C98.0972 161.427 98.176 160.23 98.2548 159.033C98.2886 158.52 98.3224 158.006 98.3599 157.493C98.3717 157.324 98.3857 157.156 98.3997 156.986C98.4353 156.557 98.4711 156.125 98.4711 155.686C98.485 153.822 98.485 151.945 98.485 150.082V147.037C98.2557 146.995 98.0228 146.95 97.79 146.905C97.5572 146.86 97.3245 146.814 97.0952 146.773C96.7894 145.688 97.123 145.271 98.2348 145.271C98.7055 145.276 99.1776 145.282 99.6502 145.288C100.601 145.3 101.555 145.313 102.502 145.313C103.516 145.313 103.614 145.341 103.711 146.286C103.72 146.451 103.699 146.623 103.68 146.78C103.67 146.861 103.66 146.938 103.655 147.009C103.598 147.044 103.555 147.078 103.519 147.107C103.468 147.147 103.432 147.176 103.391 147.176C102.058 147.273 102.057 147.301 102.015 148.494L102.015 148.497C101.957 150.094 101.884 151.686 101.811 153.279C101.762 154.349 101.712 155.42 101.668 156.492C101.658 156.772 101.695 157.046 101.733 157.322C101.75 157.443 101.766 157.565 101.779 157.688C101.862 157.716 101.96 157.744 102.057 157.771C102.135 157.668 102.218 157.567 102.301 157.465C102.499 157.222 102.698 156.979 102.835 156.715C103.564 155.326 104.282 153.932 104.999 152.54C105.431 151.701 105.862 150.863 106.296 150.026C106.533 149.568 106.773 149.11 107.013 148.651C107.437 147.843 107.862 147.033 108.27 146.217C108.506 145.73 108.867 145.521 109.409 145.521C109.71 145.515 110.013 145.498 110.317 145.481C110.703 145.46 111.092 145.438 111.48 145.438C112.787 145.424 113.065 145.716 113.009 146.926C113.002 147.019 112.987 147.115 112.971 147.223C112.956 147.325 112.939 147.437 112.926 147.565C112.804 147.587 112.688 147.601 112.581 147.613C112.345 147.641 112.147 147.665 111.994 147.76C111.772 147.899 111.48 148.191 111.48 148.413C111.471 151.778 111.474 155.136 111.477 158.496C111.479 160.177 111.48 161.859 111.48 163.542C111.48 163.611 111.578 163.75 111.578 163.75C112.671 164.047 113.171 164.65 113.079 165.558C112.901 165.568 112.722 165.584 112.542 165.6C112.226 165.627 111.905 165.655 111.578 165.655C111.212 165.655 110.846 165.652 110.48 165.649C109.748 165.643 109.016 165.637 108.284 165.655C106.88 165.697 106.81 165.655 106.852 164.251C107.01 164.197 107.17 164.141 107.332 164.085C107.666 163.968 108.006 163.849 108.353 163.736C108.381 162.427 108.443 161.126 108.506 159.821Z" fill="#122F4A" style="fill:#122F4A;fill:color(display-p3 0.0693 0.1849 0.2917);fill-opacity:1;"/>
<path fill-rule="evenodd" clip-rule="evenodd" d="M85.4342 191.49C85.7956 190.878 86.1292 190.809 86.8519 191.059V190.99C87.4356 191.198 87.7136 191.588 87.6163 192.144C87.5746 192.436 87.4634 192.728 87.3244 193.006C87.1913 193.262 87.0606 193.519 86.9302 193.774C86.5159 194.587 86.1045 195.394 85.6288 196.176C84.6142 197.831 82.8213 198.137 81.1951 197.01C79.7358 196.009 78.7768 194.647 78.1236 193.117C77.7503 192.243 77.4496 191.351 77.1489 190.459C76.9234 189.79 76.6979 189.121 76.4418 188.459C76.2036 187.83 75.8937 187.214 75.579 186.589C75.4345 186.302 75.2891 186.013 75.1492 185.72C74.7601 185.692 74.5099 185.678 74.2736 185.678C73.0089 185.72 72.7309 185.984 72.7309 187.208C72.7379 187.864 72.7554 188.517 72.7728 189.168C72.7901 189.814 72.8074 190.457 72.8143 191.101C72.8143 191.247 72.7666 191.393 72.7189 191.539C72.6985 191.602 72.6781 191.664 72.6614 191.727C72.6503 191.771 72.6341 191.825 72.6176 191.88C72.5722 192.031 72.5234 192.193 72.5641 192.213C73.1184 192.506 73.0746 192.941 73.0308 193.375C73.0164 193.518 73.002 193.661 73.0089 193.798C73.0178 194.014 73.0152 194.229 73.0122 194.475C73.0106 194.61 73.0089 194.753 73.0089 194.911C73.1989 194.928 73.3698 194.941 73.5295 194.952C73.7554 194.969 73.9589 194.984 74.1624 195.008C74.9408 195.106 75.3021 195.439 75.3994 196.162C75.5662 197.497 75.0937 198.026 73.676 198.026C73.1966 198.018 72.7132 197.982 72.2301 197.947C71.8168 197.916 71.4037 197.885 70.9936 197.873C70.4695 197.861 69.9454 197.856 69.4212 197.852C68.7223 197.846 68.0233 197.841 67.3243 197.817C66.9913 197.806 66.6583 197.754 66.3061 197.699C66.2026 197.682 66.0974 197.666 65.9901 197.65C66.0595 196.858 66.129 196.19 66.2124 195.411C66.5322 195.37 66.8484 195.328 67.1647 195.286C67.4808 195.245 67.7969 195.203 68.1165 195.161C68.9088 195.064 69.1311 194.883 69.1728 194.174C69.1992 193.831 69.1974 193.489 69.1957 193.146C69.1938 192.766 69.1919 192.385 69.2284 192.005C69.2666 191.576 69.3635 191.153 69.461 190.728C69.5057 190.533 69.5505 190.338 69.5898 190.142C69.6019 190.097 69.6186 190.052 69.6353 190.006C69.6762 189.895 69.7167 189.785 69.6871 189.697C69.3547 188.875 69.3317 188.026 69.3087 187.174C69.299 186.814 69.2892 186.454 69.2562 186.095C69.2145 185.609 68.8115 185.525 68.3667 185.525H66.546C66.6016 184.983 66.6433 184.552 66.685 184.107C67.1714 184.002 67.6296 183.897 68.0878 183.792C68.4806 183.703 68.8734 183.613 69.284 183.523C69.7493 180.555 69.65 177.588 69.5481 174.547C69.5283 173.955 69.5084 173.359 69.4925 172.761C69.0199 172.711 68.5324 172.656 68.0271 172.599C67.6854 172.561 67.3357 172.522 66.9769 172.483V170.939C67.3375 170.618 67.7238 170.741 68.1111 170.863C68.5298 170.996 68.9497 171.129 69.3396 170.703C69.4786 170.967 69.5759 171.148 69.6732 171.328C69.7046 171.323 69.7419 171.324 69.7778 171.325C69.837 171.326 69.8921 171.327 69.9095 171.301C70.2013 170.953 70.5627 170.814 71.063 170.828C72.7309 170.884 74.3987 170.911 76.2194 170.939C76.2809 171.325 76.3367 171.684 76.3976 172.074C76.4331 172.302 76.4703 172.541 76.5113 172.802H74.9686C73.8706 172.816 73.537 173.136 73.4675 174.165C73.4255 174.805 73.3787 175.444 73.332 176.082C73.2398 177.342 73.1476 178.601 73.0922 179.866C73.0595 180.642 73.1211 181.417 73.1827 182.193C73.1995 182.405 73.2163 182.616 73.2312 182.828C73.2312 182.928 73.3145 183.016 73.4344 183.143C73.4978 183.21 73.5713 183.288 73.6482 183.384C73.8289 183.065 74.003 182.76 74.1721 182.464C74.549 181.803 74.9011 181.185 75.2465 180.561C75.9832 179.226 76.7198 177.878 77.4425 176.529C77.6788 176.098 77.8734 175.625 78.0541 175.166L78.0772 175.109C78.4847 174.095 78.4885 174.086 79.43 173.567C79.4112 173.487 79.3749 173.399 79.3388 173.312C79.2683 173.141 79.1989 172.973 79.2632 172.872C79.569 172.385 79.9026 171.885 80.3612 171.523C81.1812 170.884 82.2375 170.939 83.2243 171.009C83.6135 171.05 84.0861 171.356 84.3223 171.662C85.1979 172.802 85.601 174.04 85.1146 175.444C85.0756 175.561 85.0323 175.678 84.9889 175.795C84.9239 175.97 84.8588 176.145 84.8088 176.32C84.4752 177.474 83.8915 177.711 82.585 177.474C81.6121 177.294 81.1395 176.445 81.348 175.444C81.3814 175.269 81.4298 175.094 81.4781 174.919C81.5104 174.802 81.5426 174.685 81.5704 174.568C81.5798 174.521 81.5576 174.475 81.5294 174.415C81.5157 174.386 81.5006 174.354 81.487 174.318C80.667 174.096 80.3056 174.638 80.0277 175.18C79.4995 176.251 78.9853 177.335 78.5127 178.434C77.9421 179.729 77.3974 181.033 76.8378 182.374C76.6886 182.731 76.5383 183.091 76.3862 183.453C78.0957 184.288 79.0548 185.609 79.6802 187.249C80.1805 188.566 80.7427 189.857 81.3048 191.149C81.5858 191.795 81.8669 192.44 82.1403 193.089C82.3904 193.659 82.863 193.924 83.5857 193.924C84.2945 193.924 84.5586 193.437 84.7949 192.95C84.8986 192.743 84.9835 192.525 85.0685 192.306C85.1772 192.027 85.286 191.748 85.4342 191.49ZM83.3052 172.012C83.4438 171.976 83.5824 171.94 83.7386 171.899C83.1965 171.565 82.9325 171.76 82.5294 172.218C82.8423 172.131 83.0737 172.072 83.3052 172.012ZM79.3745 188.139C79.4266 188.237 79.4787 188.334 79.5273 188.431C79.5829 188.403 79.6524 188.376 79.708 188.348C79.6524 188.25 79.6003 188.153 79.5481 188.056C79.496 187.958 79.4439 187.861 79.3883 187.764L79.2215 187.847C79.2702 187.945 79.3223 188.042 79.3745 188.139Z" fill="#122F4A" style="fill:#122F4A;fill:color(display-p3 0.0693 0.1849 0.2917);fill-opacity:1;"/>
<path d="M64.8504 147.329C65.0866 148.413 64.9338 149.456 64.3778 150.444L64.4056 150.485C64.1415 150.944 63.7941 151.278 62.988 151.222V148.886C62.9741 147.412 62.5432 147.037 61.0144 147.134C60.4445 147.162 59.8747 147.19 59.3048 147.19H57.6092C57.6061 147.38 57.6037 147.564 57.6013 147.742C57.5932 148.356 57.5859 148.906 57.5536 149.456C57.547 149.622 57.5538 149.791 57.5607 149.96C57.5826 150.499 57.6048 151.045 57.1922 151.542C57.0116 151.765 57.2478 152.891 57.3868 153.336C57.498 153.725 57.5953 154.142 57.5675 154.545C57.4445 156.467 57.6049 158.369 57.768 160.304C57.8446 161.212 57.9217 162.127 57.9706 163.055C58.1409 163.112 58.3171 163.169 58.5093 163.231C58.7405 163.305 58.995 163.388 59.2909 163.486C59.3088 163.728 59.3324 163.992 59.3581 164.279C59.3723 164.439 59.3872 164.605 59.4021 164.779C58.7184 165.032 58.0472 164.989 57.393 164.946C57.0764 164.925 56.7638 164.905 56.4556 164.918C55.8452 164.946 55.2348 164.937 54.5813 164.928C54.2379 164.923 53.8826 164.918 53.5091 164.918C53.4813 164.418 53.4535 163.945 53.4257 163.514L53.461 163.499C54.5799 163.027 54.6071 163.016 54.6071 161.901C54.6071 160.804 54.5898 159.704 54.5724 158.602C54.555 157.497 54.5376 156.39 54.5376 155.282C54.5376 155.018 54.5689 154.754 54.6001 154.49C54.6314 154.226 54.6627 153.961 54.6627 153.697C54.6349 152.689 54.6001 151.681 54.5654 150.673C54.5306 149.665 54.4959 148.657 54.4681 147.649C54.4542 147.065 54.1762 146.814 53.5508 146.856C53.274 146.874 52.9915 146.869 52.6626 146.863C52.4796 146.86 52.2823 146.856 52.0636 146.856C52.0963 146.614 52.1291 146.397 52.1618 146.179C52.1985 145.934 52.2353 145.69 52.2721 145.41L52.4303 145.406C53.5542 145.38 54.6296 145.354 55.7051 145.354C56.6641 145.354 57.6196 145.361 58.5751 145.368C59.5307 145.375 60.4862 145.382 61.4452 145.382C61.89 145.382 62.3347 145.396 62.7795 145.424C64.0304 145.507 64.6141 146.272 64.8504 147.329Z" fill="#122F4A" style="fill:#122F4A;fill:color(display-p3 0.0693 0.1849 0.2917);fill-opacity:1;"/>
<path fill-rule="evenodd" clip-rule="evenodd" d="M21.9436 161.546C21.7742 162.068 21.6048 162.589 21.4589 163.111V163.083C21.3199 163.597 20.9446 163.889 20.4165 163.903C19.6104 163.931 18.7904 163.903 17.9842 163.862C17.4422 163.834 17.0947 163.5 16.9279 163.027C16.7981 162.653 16.6598 162.278 16.5212 161.903C16.1555 160.913 15.7876 159.916 15.5659 158.898C15.0516 156.506 14.2455 154.198 13.217 151.931C13.1741 153.066 13.1125 154.198 13.0509 155.332C12.913 157.867 12.7745 160.414 12.8417 163.027C13.1246 163.043 13.3898 163.059 13.6423 163.074C14.0598 163.099 14.443 163.121 14.8154 163.139C14.8469 163.175 14.8785 163.204 14.9062 163.23C14.9519 163.271 14.9874 163.304 14.996 163.347C15.5381 165.391 15.4825 165.461 13.3143 165.669C11.4241 165.85 9.57557 165.628 7.71316 165.363C7.21281 165.294 7.03213 165.002 7.14332 164.543C7.18084 164.363 7.21025 164.179 7.24032 163.99C7.26594 163.83 7.29203 163.666 7.324 163.5C7.47532 163.456 7.62521 163.404 7.77459 163.352C8.09171 163.243 8.40652 163.135 8.72776 163.097C9.42269 163.013 9.68676 162.721 9.70066 162.054C9.72661 161.042 9.77374 160.029 9.82087 159.017C9.87473 157.86 9.9286 156.703 9.95084 155.547C9.98 154.02 9.96156 152.499 9.94309 150.976C9.93516 150.322 9.92722 149.667 9.92304 149.011C9.90914 148.511 9.89524 148.01 9.82575 147.524C9.80881 147.405 9.79545 147.295 9.78307 147.192C9.6837 146.372 9.64708 146.07 8.3247 146.119C7.69926 146.133 7.324 145.911 7.324 145.202C7.36061 145.188 7.40023 145.167 7.44187 145.144C7.52671 145.099 7.61993 145.049 7.71316 145.049C9.42269 145.007 11.1322 144.965 12.8417 144.965C13.9361 144.965 13.9535 145.018 14.2472 145.902L14.2733 145.98C15.4269 149.484 16.5944 152.988 17.7619 156.478C18.0395 157.321 18.337 158.164 18.6634 159.089C18.8107 159.507 18.964 159.941 19.1239 160.399C19.5965 159.162 19.9717 158.175 20.347 157.173C20.8149 155.899 21.2843 154.624 21.7538 153.35C22.6927 150.801 23.6317 148.251 24.5583 145.702C24.7946 145.076 25.2393 144.757 25.9203 144.743C26.657 144.729 27.3797 144.729 28.1163 144.77C29.3394 144.854 29.4784 145.021 29.4228 146.203C29.4145 146.269 29.3965 146.335 29.3744 146.415C29.3594 146.471 29.3424 146.532 29.3255 146.606C28.9641 146.703 28.575 146.801 28.0607 146.926C28.0139 148.064 27.953 149.203 27.892 150.344C27.6631 154.622 27.4338 158.91 27.9495 163.18C28.1043 163.233 28.2492 163.279 28.386 163.323C28.6793 163.416 28.9357 163.498 29.1726 163.611C29.6313 163.82 29.7564 164.209 29.673 164.668C29.5896 165.113 29.2838 165.28 28.8391 165.377C27.5667 165.676 26.27 165.635 24.9831 165.594C24.8924 165.591 24.8017 165.589 24.7112 165.586C24.3919 165.573 24.0608 165.466 23.7397 165.363C23.7113 165.354 23.683 165.345 23.6549 165.336C23.1128 165.155 22.9321 164.752 23.0155 164.237C23.0989 163.75 23.2518 163.333 23.905 163.361C23.9667 163.361 24.0283 163.344 24.1089 163.322C24.1737 163.304 24.2507 163.282 24.3498 163.264C24.6695 159.941 24.864 156.589 24.6973 153.183C24.6602 153.262 24.6201 153.339 24.5799 153.416C24.4996 153.571 24.4193 153.725 24.3637 153.892L22.1121 161.025C22.0565 161.199 22.0001 161.373 21.9436 161.546ZM27.2824 158.633L27.1573 158.592C27.1156 158.696 27.0774 158.804 27.0392 158.912C27.001 159.019 26.9627 159.127 26.921 159.231C26.9367 159.237 26.9505 159.244 26.9637 159.251C26.9856 159.262 27.0062 159.273 27.0322 159.273C27.1156 159.051 27.199 158.842 27.2824 158.633Z" fill="#122F4A" style="fill:#122F4A;fill:color(display-p3 0.0693 0.1849 0.2917);fill-opacity:1;"/>
</g>
</g>
</svg>
