<svg width="179" height="215" viewBox="0 0 179 215" fill="none" xmlns="http://www.w3.org/2000/svg">
<g id="Group 4">
<path id="Rectangle 2" d="M22.6116 17.6669H178.467V214.65C178.467 214.65 44.2582 214.65 22.6116 214.65C0.965088 214.65 0.965088 197.333 0.965088 197.333L22.6116 17.6669Z" fill="#BD4B32" style="fill:#BD4B32;fill:color(display-p3 0.7412 0.2941 0.1961);fill-opacity:1;"/>
<path id="Rectangle 4" d="M16.1178 13.3376L158.985 2.51433C158.985 2.51433 157.903 21.9962 171.973 24.1609V210.321C171.973 210.321 46.4229 210.321 25.8587 210.321C5.29452 210.321 10.7059 198.415 10.7059 198.415L16.1178 13.3376Z" fill="white" style="fill:white;fill:white;fill-opacity:1;"/>
<path id="Rectangle 3" d="M0.965088 11.5497C0.965088 7.62928 0.965088 5.6691 1.72804 4.17171C2.39916 2.85458 3.47002 1.78372 4.78715 1.1126C6.28454 0.349648 8.24472 0.349648 12.1651 0.349648H161.149V197.333H0.965088V11.5497Z" fill="#BD4B32" style="fill:#BD4B32;fill:color(display-p3 0.7412 0.2941 0.1961);fill-opacity:1;"/>
<rect id="Rectangle 5" x="25.2761" y="41.9781" width="107.233" height="44.4577" rx="3.5" fill="#DD7159" stroke="#C1A161" style="fill:#DD7159;fill:color(display-p3 0.8667 0.4432 0.3503);fill-opacity:1;stroke:#C1A161;stroke:color(display-p3 0.7583 0.6305 0.3823);stroke-opacity:1;"/>
</g>
</svg>
