<svg width="157" height="190" viewBox="0 0 157 190" fill="none" xmlns="http://www.w3.org/2000/svg">
<g id="Group 2">
<path id="Rectangle 2" d="M19.081 15.9012H156.464V189.538C156.464 189.538 38.162 189.538 19.081 189.538C0 189.538 0 174.274 0 174.274L19.081 15.9012Z" fill="#A46F8C" style="fill:#A46F8C;fill:color(display-p3 0.6417 0.4358 0.5488);fill-opacity:1;"/>
<path id="Rectangle 4" d="M13.3569 12.085L139.292 2.54446C139.292 2.54446 138.338 19.7174 150.74 21.6255V185.722C150.74 185.722 40.0703 185.722 21.9434 185.722C3.8164 185.722 8.58644 175.228 8.58644 175.228L13.3569 12.085Z" fill="white" style="fill:white;fill:white;fill-opacity:1;"/>
<path id="Rectangle 3" d="M0 11.8364C0 7.91599 0 5.9558 0.762954 4.45842C1.43407 3.14128 2.50493 2.07042 3.82207 1.39931C5.31945 0.636353 7.27963 0.636353 11.2 0.636353H141.2V174.274H0V11.8364Z" fill="#A46F8C" style="fill:#A46F8C;fill:color(display-p3 0.6417 0.4358 0.5488);fill-opacity:1;"/>
<rect id="Rectangle 5" x="21.489" y="37.3903" width="94.4051" height="39.0701" rx="3.5" fill="#C496AF" stroke="#C1A161" style="fill:#C496AF;fill:color(display-p3 0.7667 0.5878 0.6857);fill-opacity:1;stroke:#C1A161;stroke:color(display-p3 0.7583 0.6305 0.3823);stroke-opacity:1;"/>
</g>
</svg>
