<svg width="208" height="208" viewBox="0 0 208 208" fill="none" xmlns="http://www.w3.org/2000/svg">
<g id="Frame 28">
<g id="Group 4">
<rect id="Rectangle 1" x="34.6323" y="11.6669" width="138.736" height="175.46" fill="#B88D6E" style="fill:#B88D6E;fill:color(display-p3 0.7216 0.5529 0.4314);fill-opacity:1;"/>
<rect id="Rectangle 8" x="59.115" y="42.6783" width="89.7701" height="113.437" fill="#D4A688" style="fill:#D4A688;fill:color(display-p3 0.8314 0.6510 0.5333);fill-opacity:1;"/>
<path id="Rectangle 2" d="M48.5057 196.92H161.126L174.184 187.127H35.4482L48.5057 196.92Z" fill="#A47C5D" style="fill:#A47C5D;fill:color(display-p3 0.6431 0.4863 0.3647);fill-opacity:1;"/>
<path id="Rectangle 6" d="M33 107.816C33 106.976 33.64 106.275 34.4765 106.198L173.226 93.4391C174.178 93.3516 175 94.1012 175 95.0576C175 95.8976 174.36 96.5992 173.523 96.6761L34.7741 109.435C33.8217 109.522 33 108.773 33 107.816Z" fill="#D9D9D9" style="fill:#D9D9D9;fill:color(display-p3 0.8510 0.8510 0.8510);fill-opacity:1;"/>
<path id="Vector 1" d="M107.875 195.288L115.017 187.127H118.281L110.406 197.365C110.219 197.607 109.969 197.793 109.683 197.9C108.089 198.498 106.755 196.569 107.875 195.288Z" fill="#B6B6B6" style="fill:#B6B6B6;fill:color(display-p3 0.7125 0.7125 0.7125);fill-opacity:1;"/>
<path id="Rectangle 7" d="M117.703 187.705C116.887 188.521 115.492 188.124 115.229 187.001L74.211 12.4314C73.9927 11.5023 74.6186 10.5861 75.5635 10.4517C76.3971 10.333 77.1831 10.871 77.3743 11.691L118.096 186.33C118.211 186.825 118.063 187.345 117.703 187.705Z" fill="#D9D9D9" style="fill:#D9D9D9;fill:color(display-p3 0.8510 0.8510 0.8510);fill-opacity:1;"/>
<path id="Vector 2" d="M96.655 101.437C97.4711 91.2358 102.286 72.8738 115.017 81.0347C130.931 91.2358 102.368 103.885 98.6953 103.885" stroke="#E9E9E9" style="stroke:#E9E9E9;stroke:color(display-p3 0.9125 0.9125 0.9125);stroke-opacity:1;" stroke-width="5"/>
<path id="Vector 3" d="M76.6609 148.77C93.3092 131.796 96.9272 112.862 96.6552 105.518C99.5115 113.27 109.876 128.531 128.483 127.552M96.6552 101.437C98.4234 99.8049 94.8597 91.9704 82.7816 86.7473C64.8276 78.9834 60.3391 108.238 82.7816 107.558C93.554 107.231 97.0632 104.157 96.6552 101.437Z" stroke="#E9E9E9" style="stroke:#E9E9E9;stroke:color(display-p3 0.9125 0.9125 0.9125);stroke-opacity:1;" stroke-width="4"/>
<path id="?" d="M134.65 61.2938C134.552 59.9895 134.543 58.5378 134.623 56.9387C134.703 55.3397 134.868 53.9827 135.118 52.8679C135.499 51.1691 136.18 49.8722 137.162 48.9772C138.143 48.0821 139.274 47.388 140.556 46.8949C141.849 46.3486 143.098 45.8761 144.303 45.4772C145.573 45.0371 146.674 44.4757 147.608 43.793C148.607 43.0692 149.249 42.0702 149.535 40.7961C149.809 39.5751 149.575 38.3796 148.834 37.2097C148.146 36.0517 146.853 34.9811 144.954 33.9977C143.109 33.0262 140.529 32.2245 137.214 31.5924L138.589 25.4608C142.624 26.3658 145.955 27.6707 148.584 29.3754C151.224 31.0271 153.1 32.9811 154.211 35.2376C155.375 37.506 155.659 39.9673 155.064 42.6217C154.599 44.6921 153.826 46.275 152.744 47.3705C151.674 48.4129 150.459 49.2278 149.101 49.8152C147.808 50.3614 146.494 50.8752 145.159 51.3564C143.836 51.7846 142.675 52.3606 141.677 53.0845C140.678 53.8083 140.012 54.9135 139.678 56.3999C139.524 57.0901 139.398 57.8983 139.302 58.8246C139.271 59.7097 139.26 60.6273 139.27 61.5774L134.65 61.2938ZM134.179 80.1738C132.798 79.8642 131.773 79.2159 131.102 78.2291C130.484 77.2542 130.324 76.1031 130.622 74.776C130.92 73.4488 131.556 72.4764 132.531 71.8587C133.571 71.1998 134.781 71.0252 136.161 71.3348C137.542 71.6444 138.535 72.3132 139.14 73.3412C139.758 74.3161 139.918 75.4671 139.62 76.7943C139.323 78.1215 138.686 79.0939 137.711 79.7116C136.736 80.3293 135.559 80.4834 134.179 80.1738Z" fill="white" style="fill:white;fill:white;fill-opacity:1;"/>
</g>
</g>
</svg>
