<svg width="189" height="189" viewBox="0 0 189 189" fill="none" xmlns="http://www.w3.org/2000/svg">
<g id="label">
<path id="Star 1" d="M108.169 20.8621C111.917 18.4589 116.92 19.7996 118.965 23.7551L124.314 34.1027C125.671 36.7267 128.431 38.3205 131.382 38.1832L143.018 37.6419C147.466 37.435 151.129 41.0976 150.922 45.5457L150.38 57.1815C150.243 60.1322 151.837 62.8927 154.461 64.2491L164.808 69.5983C168.764 71.6431 170.105 76.6464 167.701 80.395L161.415 90.2013C159.821 92.6881 159.821 95.8755 161.415 98.3623L167.701 108.169C170.105 111.917 168.764 116.921 164.808 118.965L154.461 124.315C151.837 125.671 150.243 128.431 150.38 131.382L150.922 143.018C151.129 147.466 147.466 151.129 143.018 150.922L131.382 150.38C128.431 150.243 125.671 151.837 124.314 154.461L118.965 164.809C116.92 168.764 111.917 170.105 108.169 167.701L98.3623 161.415C95.8755 159.821 92.688 159.821 90.2013 161.415L80.395 167.701C76.6464 170.105 71.6431 168.764 69.5983 164.809L64.2491 154.461C62.8926 151.837 60.1322 150.243 57.1815 150.38L45.5456 150.922C41.0976 151.129 37.4349 147.466 37.6419 143.018L38.1832 131.382C38.3204 128.431 36.7267 125.671 34.1027 124.315L23.7551 118.965C19.7995 116.921 18.4589 111.917 20.8621 108.169L27.1488 98.3623C28.743 95.8755 28.743 92.6881 27.1488 90.2013L20.8621 80.395C18.4589 76.6464 19.7995 71.6431 23.7551 69.5983L34.1027 64.2491C36.7267 62.8927 38.3204 60.1322 38.1832 57.1815L37.6419 45.5457C37.4349 41.0977 41.0976 37.435 45.5456 37.6419L57.1815 38.1832C60.1322 38.3205 62.8926 36.7267 64.2491 34.1027L69.5983 23.7551C71.6431 19.7996 76.6463 18.4589 80.395 20.8621L90.2013 27.1489C92.6881 28.7431 95.8755 28.7431 98.3623 27.1489L108.169 20.8621Z" fill="#CCBB4A" style="fill:#CCBB4A;fill:color(display-p3 0.8000 0.7345 0.2900);fill-opacity:1;"/>
<g id="&#208;&#186;&#208;&#189;&#208;&#184;&#208;&#179;&#208;&#176;">
<path d="M64.3844 69.6178L56.509 78.8619L58.7103 93.0769L53.002 91.5474L51.3 80.1696L49.2517 79.6208L46.5213 89.8109L41.1487 88.3713L47.3936 65.0652L52.7661 66.5047L50.306 75.6859L52.4887 76.2708L59.2468 68.2412L64.3844 69.6178Z" fill="white" style="fill:white;fill:white;fill-opacity:1;"/>
<path d="M75.24 97.506L77.9253 87.4841L72.1162 85.9275L69.4308 95.9495L64.0583 94.5099L70.3031 71.2038L75.6757 72.6433L73.2426 81.7237L79.0518 83.2802L81.4848 74.1999L86.8574 75.6395L80.6125 98.9456L75.24 97.506Z" fill="white" style="fill:white;fill:white;fill-opacity:1;"/>
<path d="M104.372 105.312L99.234 103.935L101.613 95.0567C102.424 92.0299 103.462 89.0519 104.727 86.1227L94.3315 102.622L87.9516 100.912L94.1964 77.606L99.3004 78.9736L96.8854 87.9866C96.3987 89.8027 95.9192 91.3683 95.4469 92.6836C94.9745 93.9988 94.4393 95.3693 93.8413 96.7951L104.304 80.3142L110.616 82.0057L104.372 105.312Z" fill="white" style="fill:white;fill:white;fill-opacity:1;"/>
<path d="M131.691 87.6527L130.019 91.7462L122.229 89.6589L117.119 108.728L111.747 107.288L117.991 83.9818L131.691 87.6527Z" fill="white" style="fill:white;fill:white;fill-opacity:1;"/>
<path d="M138.821 114.543L139.141 109.185L133.231 107.602L130.829 112.401L125.39 110.944L137.914 89.32L144.361 91.0475L144.362 116.027L138.821 114.543ZM135.073 103.95L139.371 105.102L140.016 94.1005L135.073 103.95Z" fill="white" style="fill:white;fill:white;fill-opacity:1;"/>
</g>
<g id="&#208;&#178; &#208;&#188;&#208;&#181;&#209;&#129;&#209;&#143;&#209;&#134;">
<path d="M50.6936 119.338L53.279 109.689L57.4042 110.794C58.352 111.048 59.055 111.47 59.5133 112.059C59.9758 112.632 60.1113 113.277 59.9198 113.991C59.7907 114.473 59.5302 114.886 59.1381 115.231C58.746 115.575 58.2681 115.805 57.7042 115.921C57.1404 116.036 56.5322 116.006 55.8797 115.831L56.35 115.008C57.5309 115.325 58.4064 115.817 58.9765 116.486C59.5466 117.155 59.7213 117.901 59.5007 118.725C59.28 119.548 58.767 120.127 57.9615 120.461C57.156 120.794 56.1783 120.807 55.0286 120.499L50.6936 119.338ZM52.3918 118.594L55.3749 119.393C56.1052 119.589 56.7041 119.591 57.1716 119.4C57.6433 119.193 57.9458 118.841 58.079 118.344C58.2164 117.831 58.0916 117.365 57.7046 116.945C57.3372 116.513 56.6952 116.175 55.7785 115.929L52.8419 115.142L53.1417 114.024L56.3113 114.873C56.8707 115.023 57.3432 114.999 57.7289 114.803C58.1301 114.611 58.389 114.297 58.5056 113.862C58.6138 113.458 58.5423 113.073 58.2909 112.706C58.0551 112.343 57.5954 112.07 56.9117 111.886L54.3714 111.206L52.3918 118.594Z" fill="white" style="fill:white;fill:white;fill-opacity:1;"/>
<path d="M65.7962 123.384L68.7948 113.871L69.8203 114.146L67.0314 123.715L65.7962 123.384ZM75.0021 125.851L77.2478 116.911L77.8821 116.781L71.5316 124.447L70.8558 124.266L69.1993 114.879L69.5173 114.065L70.3563 114.29L72.0046 122.775L71.5851 122.662L77.1151 116.101L78.6766 116.519L76.5403 126.263L75.0021 125.851Z" fill="white" style="fill:white;fill:white;fill-opacity:1;"/>
<path d="M83.3411 128.31C82.4243 128.065 81.6664 127.662 81.0671 127.102C80.472 126.526 80.0661 125.834 79.8495 125.027C79.6526 124.208 79.6832 123.317 79.9413 122.354C80.2286 121.281 80.6959 120.407 81.3432 119.732C82.0103 119.044 82.775 118.583 83.6374 118.348C84.5195 118.101 85.4344 118.105 86.3822 118.359C87.532 118.667 88.3069 119.225 88.7069 120.031C89.1069 120.838 89.155 121.808 88.851 122.942C88.8177 123.067 88.7725 123.204 88.7153 123.356C88.6779 123.495 88.6347 123.625 88.5859 123.746L87.2108 123.377L87.4294 122.561C87.6542 121.722 87.6519 121.047 87.4225 120.536C87.1972 120.01 86.7195 119.648 85.9892 119.453C85.3056 119.27 84.6616 119.28 84.0572 119.485C83.4571 119.674 82.9381 120.026 82.5002 120.541C82.0623 121.057 81.733 121.726 81.5124 122.55C81.2126 123.668 81.2918 124.647 81.7498 125.486C82.212 126.309 82.9558 126.858 83.9813 127.133C84.5095 127.275 85.0395 127.317 85.5711 127.259C86.1027 127.202 86.65 127.024 87.213 126.725L87.5646 127.743C87.041 128.019 86.5305 128.216 86.033 128.332C85.551 128.453 85.0878 128.504 84.6433 128.484C84.1946 128.481 83.7606 128.423 83.3411 128.31ZM81.058 121.729L81.5363 120.783L88.6446 122.687L88.3761 123.689L81.058 121.729Z" fill="white" style="fill:white;fill:white;fill-opacity:1;"/>
<path d="M93.3935 130.979C92.4457 130.725 91.6608 130.298 91.0388 129.699C90.421 129.083 89.9924 128.352 89.753 127.506C89.5333 126.647 89.5505 125.744 89.8044 124.797C90.0709 123.802 90.5335 122.977 91.1922 122.321C91.851 121.665 92.6291 121.215 93.5267 120.973C94.4243 120.73 95.3626 120.74 96.3414 121.003C97.0095 121.182 97.5786 121.451 98.0486 121.81C98.5186 122.169 98.9134 122.591 99.2329 123.076L98.2261 124.131C97.9459 123.622 97.6097 123.199 97.2174 122.861C96.8251 122.523 96.3648 122.283 95.8365 122.141C95.1684 121.962 94.5399 121.977 93.9511 122.186C93.3624 122.394 92.8589 122.751 92.4407 123.255C92.0381 123.763 91.741 124.375 91.5495 125.089C91.3455 125.851 91.3218 126.56 91.4785 127.218C91.6352 127.877 91.9439 128.434 92.4044 128.89C92.8805 129.351 93.4604 129.673 94.144 129.856C94.6257 129.985 95.1245 130.019 95.6406 129.957C96.1609 129.88 96.6553 129.713 97.124 129.456L97.4165 130.508C96.9675 130.754 96.5119 130.932 96.0497 131.041C95.5874 131.15 95.134 131.195 94.6895 131.176C94.245 131.157 93.813 131.091 93.3935 130.979Z" fill="white" style="fill:white;fill:white;fill-opacity:1;"/>
<path d="M104.852 133.849L107.144 125.296L104.814 124.672C104.146 124.493 103.583 124.509 103.127 124.719C102.675 124.915 102.376 125.284 102.231 125.828C102.072 126.418 102.169 126.927 102.521 127.355C102.888 127.786 103.46 128.106 104.237 128.314C104.564 128.402 104.987 128.498 105.508 128.605C106.034 128.695 106.501 128.754 106.91 128.78L106.623 129.853C106.198 129.822 105.733 129.756 105.227 129.653C104.722 129.551 104.29 129.452 103.933 129.357C102.721 129.032 101.818 128.548 101.224 127.906C100.634 127.249 100.464 126.454 100.714 125.522C100.96 124.605 101.493 123.982 102.314 123.652C103.139 123.307 104.158 123.297 105.37 123.622L108.889 124.565L106.297 134.237L104.852 133.849ZM98.2334 132.076L102.699 128.277L103.599 129.017L100.075 132.569L98.2334 132.076Z" fill="white" style="fill:white;fill:white;fill-opacity:1;"/>
<path d="M115.961 136.826L118.546 127.177L120.131 127.602L117.546 137.251L115.961 136.826ZM109.948 135.215L110.266 134.026L117.095 135.856L116.777 137.045L109.948 135.215ZM109.202 135.015L111.787 125.366L113.349 125.785L110.764 135.433L109.202 135.015ZM116.683 137.02L117.002 135.831L119.612 136.53L118.618 137.538L116.683 137.02ZM117.028 140.859L118.027 136.106L119.612 136.53L118.217 141.177L117.028 140.859Z" fill="white" style="fill:white;fill:white;fill-opacity:1;"/>
</g>
</g>
</svg>
