<svg width="157" height="219" viewBox="0 0 157 219" fill="none" xmlns="http://www.w3.org/2000/svg">
<g id="Group 3">
<path id="Rectangle 2" d="M19.4795 15.2648H156.863V219C156.863 219 38.5605 219 19.4795 219C0.398438 219 0.398438 203.735 0.398438 203.735L19.4795 15.2648Z" fill="#84C98F" style="fill:#84C98F;fill:color(display-p3 0.5184 0.7875 0.5615);fill-opacity:1;"/>
<path id="Rectangle 4" d="M13.7553 11.4486L139.69 1.90811C139.69 1.90811 138.736 19.081 151.139 20.9891V215.184C151.139 215.184 40.4688 215.184 22.3418 215.184C4.21484 215.184 8.98488 204.689 8.98488 204.689L13.7553 11.4486Z" fill="white" style="fill:white;fill:white;fill-opacity:1;"/>
<path id="Rectangle 3" d="M0.398438 11.2C0.398438 7.27963 0.398438 5.31945 1.16139 3.82207C1.83251 2.50493 2.90337 1.43407 4.2205 0.762954C5.71789 0 7.67807 0 11.5984 0H141.598V203.735H0.398438V11.2Z" fill="#84C98F" style="fill:#84C98F;fill:color(display-p3 0.5184 0.7875 0.5615);fill-opacity:1;"/>
<rect id="Rectangle 5" x="29" y="68" width="83" height="20" rx="3" fill="#98CFA1" stroke="#B0DCEF" style="fill:#98CFA1;fill:color(display-p3 0.5958 0.8125 0.6305);fill-opacity:1;stroke:#B0DCEF;stroke:color(display-p3 0.6914 0.8637 0.9375);stroke-opacity:1;" stroke-width="2"/>
<rect id="Rectangle 6" x="60.5" y="178.5" width="20" height="7" rx="3.5" fill="#98CFA1" stroke="#B0DCEF" style="fill:#98CFA1;fill:color(display-p3 0.5958 0.8125 0.6305);fill-opacity:1;stroke:#B0DCEF;stroke:color(display-p3 0.6914 0.8637 0.9375);stroke-opacity:1;"/>
</g>
</svg>
