<svg width="157" height="227" viewBox="0 0 157 227" fill="none" xmlns="http://www.w3.org/2000/svg">
<g id="Group 6">
<path id="Rectangle 2" d="M19.5356 15.2648H156.919V227C156.919 227 38.6166 227 19.5356 227C0.45459 227 0.45459 211.735 0.45459 211.735L19.5356 15.2648Z" fill="#A5C9FE" style="fill:#A5C9FE;fill:color(display-p3 0.6473 0.7867 0.9958);fill-opacity:1;"/>
<path id="Rectangle 4" d="M13.8115 11.4486L139.746 1.90811C139.746 1.90811 138.792 19.081 151.195 20.9891V223.184C151.195 223.184 40.5249 223.184 22.398 223.184C4.27099 223.184 9.04103 212.689 9.04103 212.689L13.8115 11.4486Z" fill="white" style="fill:white;fill:white;fill-opacity:1;"/>
<path id="Rectangle 3" d="M0.45459 11.2C0.45459 7.27963 0.45459 5.31945 1.21754 3.82207C1.88866 2.50493 2.95952 1.43407 4.27666 0.762954C5.77404 0 7.73422 0 11.6546 0H141.654V211.735H0.45459V11.2Z" fill="#A5C9FE" style="fill:#A5C9FE;fill:color(display-p3 0.6473 0.7867 0.9958);fill-opacity:1;"/>
<rect id="Rectangle 5" x="23.1782" y="140.192" width="94.4051" height="39.0701" rx="3.5" fill="#CADFFF" stroke="#61A5C1" style="fill:#CADFFF;fill:color(display-p3 0.7917 0.8750 1.0000);fill-opacity:1;stroke:#61A5C1;stroke:color(display-p3 0.3823 0.6455 0.7583);stroke-opacity:1;"/>
</g>
</svg>
